<svg width="337" height="142" viewBox="0 0 337 142" fill="none" xmlns="http://www.w3.org/2000/svg">
<path d="M334 89.5V3H89V89.5V139L334 136V89.5Z" fill="white" stroke="white" stroke-width="5"/>
<path d="M113.523 24.1818V26.5455H108.068V24.1818H113.523ZM120.194 19.168L121.97 18.32C122.311 18.704 122.647 19.1253 122.978 19.584C123.308 20.0427 123.602 20.496 123.858 20.944C124.124 21.3813 124.338 21.7867 124.498 22.16L122.61 23.168C122.482 22.8053 122.29 22.3893 122.034 21.92C121.778 21.44 121.49 20.96 121.17 20.48C120.85 20 120.524 19.5627 120.194 19.168ZM115.01 27.568C115.554 27.3867 116.183 27.1573 116.898 26.88C117.623 26.6027 118.38 26.304 119.17 25.984C119.97 25.664 120.759 25.344 121.538 25.024L121.986 26.896C121.271 27.216 120.546 27.536 119.81 27.856C119.074 28.176 118.348 28.4853 117.634 28.784C116.93 29.0827 116.274 29.36 115.666 29.616L115.01 27.568ZM124.386 26.144L125.858 24.784C126.22 25.168 126.61 25.5787 127.026 26.016C127.452 26.4533 127.868 26.9013 128.274 27.36C128.69 27.808 129.074 28.2453 129.426 28.672C129.778 29.088 130.066 29.472 130.29 29.824L128.642 31.424C128.439 31.0613 128.167 30.656 127.826 30.208C127.495 29.7707 127.132 29.3173 126.738 28.848C126.354 28.3787 125.954 27.9147 125.538 27.456C125.132 26.9867 124.748 26.5493 124.386 26.144ZM126.562 17.328L128.69 17.52C128.498 19.3333 128.22 20.9707 127.858 22.432C127.495 23.8827 127.01 25.1787 126.402 26.32C125.794 27.4507 125.026 28.4427 124.098 29.296C123.18 30.1493 122.066 30.8693 120.754 31.456C120.658 31.3173 120.519 31.1413 120.338 30.928C120.156 30.7147 119.964 30.496 119.762 30.272C119.559 30.0587 119.378 29.888 119.218 29.76C120.498 29.2693 121.57 28.656 122.434 27.92C123.308 27.184 124.023 26.3093 124.578 25.296C125.132 24.272 125.564 23.104 125.874 21.792C126.183 20.4693 126.412 18.9813 126.562 17.328ZM116.818 17.392L118.834 17.312L119.202 27.712L117.186 27.792L116.818 17.392ZM131.426 17.584H145.778V19.52H131.426V17.584ZM137.234 19.312H139.298V31.392H137.234V19.312ZM138.322 23.2L139.634 21.664C140.071 21.8773 140.54 22.1227 141.042 22.4C141.554 22.6667 142.06 22.9493 142.562 23.248C143.063 23.5467 143.538 23.84 143.986 24.128C144.434 24.4053 144.807 24.672 145.106 24.928L143.682 26.688C143.404 26.432 143.052 26.1547 142.626 25.856C142.21 25.5467 141.751 25.2373 141.25 24.928C140.759 24.6187 140.263 24.3147 139.762 24.016C139.26 23.7067 138.78 23.4347 138.322 23.2ZM148.754 16.976H161.714V18.352H148.754V16.976ZM155.858 20.736H161.506V22.224H155.858V20.736ZM150.722 23.392H154.85V24.112H150.722V23.392ZM150.722 24.544H154.85V25.28H150.722V24.544ZM148.834 27.424H160.546V28.8H148.834V27.424ZM147.442 29.648H161.842V31.04H147.442V29.648ZM153.666 26.784H155.522V30.656H153.666V26.784ZM148.082 16.976H149.762V20.144C149.762 20.6453 149.74 21.1947 149.698 21.792C149.666 22.3893 149.602 22.9973 149.506 23.616C149.41 24.2347 149.266 24.8373 149.074 25.424C148.892 26.0107 148.652 26.5387 148.354 27.008C148.247 26.9227 148.103 26.8213 147.922 26.704C147.74 26.576 147.554 26.4587 147.362 26.352C147.17 26.2347 147.004 26.1493 146.866 26.096C147.239 25.52 147.506 24.88 147.666 24.176C147.836 23.472 147.948 22.768 148.002 22.064C148.055 21.36 148.082 20.7147 148.082 20.128V16.976ZM151.714 20.592V20.992H153.97V20.592H151.714ZM151.714 19.504V19.904H153.97V19.504H151.714ZM150.402 18.784H155.346V21.728H150.402V18.784ZM150.098 22.144H155.01V22.976H151.57V26.672H150.098V22.144ZM154.162 22.144H155.618V25.472C155.618 25.7813 155.58 26.0107 155.506 26.16C155.431 26.2987 155.287 26.4053 155.074 26.48C154.86 26.5653 154.594 26.6133 154.274 26.624C153.954 26.6347 153.575 26.64 153.138 26.64C153.106 26.4907 153.047 26.3307 152.962 26.16C152.887 25.9787 152.812 25.8187 152.738 25.68C152.983 25.6907 153.223 25.696 153.458 25.696C153.703 25.696 153.858 25.696 153.922 25.696C154.082 25.696 154.162 25.6267 154.162 25.488V22.144ZM159.314 19.248L160.338 18.624C160.572 18.8373 160.802 19.0773 161.026 19.344C161.26 19.6107 161.436 19.8453 161.554 20.048L160.466 20.736C160.359 20.5333 160.194 20.2933 159.97 20.016C159.746 19.728 159.527 19.472 159.314 19.248ZM159.298 21.584C159.5 22.4267 159.815 23.1947 160.242 23.888C160.679 24.5707 161.244 25.0773 161.938 25.408C161.767 25.568 161.575 25.776 161.362 26.032C161.159 26.288 160.999 26.5227 160.882 26.736C160.103 26.2773 159.49 25.616 159.042 24.752C158.594 23.888 158.252 22.9173 158.018 21.84L159.298 21.584ZM157.714 18.656H159.106V21.216C159.106 21.696 159.074 22.1867 159.01 22.688C158.946 23.1787 158.818 23.6693 158.626 24.16C158.444 24.64 158.167 25.0987 157.794 25.536C157.431 25.9733 156.951 26.3787 156.354 26.752C156.236 26.5813 156.071 26.4 155.858 26.208C155.644 26.0053 155.447 25.8347 155.266 25.696C155.81 25.376 156.242 25.0293 156.562 24.656C156.892 24.2827 157.138 23.8987 157.298 23.504C157.468 23.1093 157.58 22.72 157.634 22.336C157.687 21.9413 157.714 21.5573 157.714 21.184V18.656ZM169.122 21.584V22.944H170.69V21.584H169.122ZM169.122 24.48V25.856H170.69V24.48H169.122ZM169.122 18.704V20.048H170.69V18.704H169.122ZM167.506 17.04H172.37V27.52H167.506V17.04ZM170.21 28.336L171.666 27.52C171.868 27.7653 172.076 28.0373 172.29 28.336C172.514 28.6347 172.716 28.928 172.898 29.216C173.09 29.504 173.244 29.76 173.362 29.984L171.826 30.896C171.73 30.672 171.591 30.4107 171.41 30.112C171.228 29.8133 171.031 29.5093 170.818 29.2C170.615 28.88 170.412 28.592 170.21 28.336ZM167.938 27.664L169.682 28.144C169.426 28.752 169.1 29.36 168.706 29.968C168.311 30.576 167.922 31.0827 167.538 31.488C167.42 31.392 167.266 31.28 167.074 31.152C166.892 31.024 166.706 30.9013 166.514 30.784C166.322 30.6667 166.156 30.5707 166.018 30.496C166.402 30.144 166.764 29.712 167.106 29.2C167.458 28.688 167.735 28.176 167.938 27.664ZM175.81 16.4H177.554V29.28C177.554 29.76 177.5 30.1387 177.394 30.416C177.298 30.6933 177.106 30.9067 176.818 31.056C176.54 31.2053 176.183 31.3013 175.746 31.344C175.319 31.3973 174.791 31.424 174.162 31.424C174.13 31.168 174.06 30.8587 173.954 30.496C173.847 30.144 173.735 29.84 173.618 29.584C174.023 29.5947 174.402 29.6053 174.754 29.616C175.106 29.616 175.346 29.616 175.474 29.616C175.602 29.6053 175.687 29.5787 175.73 29.536C175.783 29.4827 175.81 29.3973 175.81 29.28V16.4ZM173.17 18.048H174.818V27.328H173.17V18.048ZM163.65 17.936L164.738 16.544C165.026 16.6613 165.33 16.8053 165.65 16.976C165.98 17.1467 166.29 17.328 166.578 17.52C166.876 17.7013 167.116 17.8773 167.298 18.048L166.146 19.584C165.986 19.4027 165.762 19.216 165.474 19.024C165.196 18.8213 164.898 18.624 164.578 18.432C164.258 18.24 163.948 18.0747 163.65 17.936ZM163.042 22.224L164.098 20.8C164.396 20.9173 164.706 21.056 165.026 21.216C165.356 21.3653 165.666 21.5307 165.954 21.712C166.252 21.8827 166.492 22.048 166.674 22.208L165.554 23.76C165.383 23.6 165.154 23.424 164.866 23.232C164.588 23.04 164.29 22.8587 163.97 22.688C163.65 22.5067 163.34 22.352 163.042 22.224ZM163.314 30.272C163.516 29.856 163.735 29.3653 163.97 28.8C164.215 28.2347 164.46 27.6373 164.706 27.008C164.962 26.368 165.191 25.7387 165.394 25.12L166.946 26.112C166.775 26.688 166.583 27.2747 166.37 27.872C166.156 28.4587 165.938 29.04 165.714 29.616C165.49 30.1813 165.266 30.7307 165.042 31.264L163.314 30.272ZM184.818 28.768C185.468 28.6613 186.242 28.5333 187.138 28.384C188.034 28.2347 188.946 28.08 189.874 27.92L190.002 29.504C189.17 29.6853 188.332 29.8613 187.49 30.032C186.658 30.2027 185.895 30.3627 185.202 30.512L184.818 28.768ZM185.122 22.928H189.506V24.576H185.122V22.928ZM185.138 19.44H193.938V21.184H185.138V19.44ZM191.522 17.248L192.834 16.576C193.1 16.864 193.367 17.1947 193.634 17.568C193.9 17.9307 194.098 18.256 194.226 18.544L192.834 19.296C192.716 19.008 192.53 18.672 192.274 18.288C192.028 17.904 191.778 17.5573 191.522 17.248ZM186.466 23.568H188.242V28.944L186.466 29.28V23.568ZM189.714 16.416H191.554C191.532 17.8133 191.532 19.1413 191.554 20.4C191.575 21.648 191.612 22.8 191.666 23.856C191.73 24.9013 191.804 25.8133 191.89 26.592C191.986 27.36 192.098 27.9573 192.226 28.384C192.354 28.8107 192.498 29.0347 192.658 29.056C192.764 29.056 192.85 28.8853 192.914 28.544C192.978 28.2027 193.026 27.7227 193.058 27.104C193.154 27.2533 193.287 27.4027 193.458 27.552C193.639 27.7013 193.815 27.84 193.986 27.968C194.167 28.096 194.306 28.192 194.402 28.256C194.263 29.1413 194.087 29.8133 193.874 30.272C193.671 30.7307 193.452 31.04 193.218 31.2C192.994 31.36 192.78 31.44 192.578 31.44C192.087 31.4293 191.676 31.1947 191.346 30.736C191.015 30.288 190.743 29.6373 190.53 28.784C190.327 27.9307 190.167 26.896 190.05 25.68C189.932 24.464 189.847 23.0773 189.794 21.52C189.751 19.9627 189.724 18.2613 189.714 16.416ZM179.794 21.312H184.53V22.768H179.794V21.312ZM179.858 16.912H184.45V18.352H179.858V16.912ZM179.794 23.504H184.53V24.944H179.794V23.504ZM179.074 19.056H184.898V20.576H179.074V19.056ZM180.626 25.712H184.514V30.592H180.626V29.072H182.914V27.232H180.626V25.712ZM179.762 25.712H181.346V31.216H179.762V25.712ZM197.746 24.848H208.594V26.496H197.746V24.848ZM195.57 19.008H206.178V20.736H195.57V19.008ZM200.306 21.952H207.554V23.6H200.306V21.952ZM207.858 24.848H209.762C209.762 24.848 209.756 24.896 209.746 24.992C209.746 25.0773 209.74 25.1787 209.73 25.296C209.73 25.4133 209.724 25.5093 209.714 25.584C209.628 26.672 209.532 27.568 209.426 28.272C209.33 28.9653 209.218 29.5147 209.09 29.92C208.962 30.3147 208.812 30.6027 208.642 30.784C208.46 30.9867 208.263 31.1307 208.05 31.216C207.847 31.3013 207.612 31.36 207.346 31.392C207.132 31.424 206.839 31.44 206.466 31.44C206.103 31.4507 205.719 31.4453 205.314 31.424C205.303 31.168 205.244 30.8747 205.138 30.544C205.042 30.2133 204.919 29.9253 204.77 29.68C205.122 29.712 205.452 29.7333 205.762 29.744C206.071 29.7547 206.306 29.7547 206.466 29.744C206.594 29.744 206.7 29.7333 206.786 29.712C206.882 29.6907 206.972 29.6427 207.058 29.568C207.164 29.4613 207.26 29.248 207.346 28.928C207.442 28.5973 207.532 28.1227 207.618 27.504C207.703 26.8853 207.783 26.0907 207.858 25.12V24.848ZM204.45 27.056L205.762 26.608C205.986 26.9387 206.194 27.3013 206.386 27.696C206.578 28.0907 206.716 28.432 206.802 28.72L205.394 29.248C205.33 28.96 205.207 28.608 205.026 28.192C204.844 27.776 204.652 27.3973 204.45 27.056ZM197.362 17.072L199.09 16.4C199.378 16.7093 199.671 17.0613 199.97 17.456C200.268 17.8507 200.498 18.1973 200.658 18.496L198.818 19.248C198.7 18.96 198.498 18.6133 198.21 18.208C197.932 17.792 197.65 17.4133 197.362 17.072ZM199.618 27.488L201.17 27.312C201.319 27.824 201.431 28.3893 201.506 29.008C201.58 29.616 201.618 30.144 201.618 30.592L199.97 30.8C199.991 30.512 199.986 30.176 199.954 29.792C199.932 29.408 199.89 29.0187 199.826 28.624C199.772 28.2187 199.703 27.84 199.618 27.488ZM202.034 27.36L203.506 27.024C203.698 27.4827 203.874 27.9733 204.034 28.496C204.194 29.0187 204.3 29.4773 204.354 29.872L202.802 30.256C202.759 29.8613 202.663 29.392 202.514 28.848C202.364 28.304 202.204 27.808 202.034 27.36ZM197.474 26.96L199.09 27.488C198.983 27.9573 198.85 28.4267 198.69 28.896C198.54 29.3547 198.354 29.7973 198.13 30.224C197.906 30.6507 197.639 31.0347 197.33 31.376L195.842 30.32C196.119 30.0427 196.359 29.7227 196.562 29.36C196.775 28.9973 196.956 28.6133 197.106 28.208C197.266 27.792 197.388 27.376 197.474 26.96ZM202.306 16.384L204.274 16.864C203.911 18.0053 203.479 19.1253 202.978 20.224C202.487 21.312 201.9 22.352 201.218 23.344C200.546 24.3253 199.767 25.232 198.882 26.064C197.996 26.8853 196.988 27.5947 195.858 28.192C195.783 28.0427 195.682 27.8667 195.554 27.664C195.436 27.4507 195.314 27.2427 195.186 27.04C195.058 26.8373 194.935 26.6667 194.818 26.528C195.842 26.016 196.754 25.392 197.554 24.656C198.364 23.92 199.074 23.104 199.682 22.208C200.3 21.312 200.823 20.3733 201.25 19.392C201.687 18.4 202.039 17.3973 202.306 16.384ZM205.794 19.008H207.57C207.452 19.6053 207.319 20.2293 207.17 20.88C207.031 21.5307 206.898 22.0907 206.77 22.56L205.09 22.288C205.218 21.8507 205.346 21.3333 205.474 20.736C205.602 20.128 205.708 19.552 205.794 19.008ZM206.834 21.952H208.61C208.503 22.5387 208.38 23.152 208.242 23.792C208.103 24.432 207.964 24.9813 207.826 25.44L206.146 25.216C206.274 24.768 206.402 24.2453 206.53 23.648C206.658 23.0507 206.759 22.4853 206.834 21.952ZM212.114 19.424H225.026V21.312H212.114V19.424ZM212.962 24.096H224.274V25.952H212.962V24.096ZM211.426 29.04H225.826V30.928H211.426V29.04ZM217.538 21.056H219.65V30.048H217.538V21.056ZM216.114 17.488L217.714 16.384C218.055 16.5973 218.418 16.848 218.802 17.136C219.196 17.424 219.57 17.712 219.922 18C220.284 18.288 220.578 18.56 220.802 18.816L219.09 20.048C218.898 19.8027 218.631 19.5307 218.29 19.232C217.959 18.9227 217.602 18.6187 217.218 18.32C216.834 18.0107 216.466 17.7333 216.114 17.488ZM228.882 19.008H233.794V29.776H228.882V28.096H232.066V20.672H228.882V19.008ZM227.762 19.008H229.506V30.96H227.762V19.008ZM228.818 23.28H232.898V24.944H228.818V23.28ZM230.05 16.4L232.13 16.704C231.959 17.248 231.772 17.7867 231.57 18.32C231.378 18.8533 231.202 19.3067 231.042 19.68L229.506 19.328C229.58 19.0507 229.65 18.7413 229.714 18.4C229.788 18.0587 229.858 17.712 229.922 17.36C229.986 17.008 230.028 16.688 230.05 16.4ZM235.906 18.88H240.594V20.64H235.906V18.88ZM239.922 18.88H241.698C241.698 18.88 241.698 18.9387 241.698 19.056C241.698 19.1627 241.698 19.2853 241.698 19.424C241.698 19.5627 241.692 19.6693 241.682 19.744C241.639 21.5467 241.586 23.0773 241.522 24.336C241.468 25.584 241.399 26.6187 241.314 27.44C241.239 28.2507 241.148 28.8853 241.042 29.344C240.935 29.8027 240.796 30.1387 240.626 30.352C240.412 30.6613 240.183 30.8747 239.938 30.992C239.692 31.1093 239.41 31.1947 239.09 31.248C238.78 31.2907 238.396 31.3067 237.938 31.296C237.49 31.296 237.031 31.2907 236.562 31.28C236.551 31.0133 236.487 30.6987 236.37 30.336C236.252 29.984 236.108 29.6747 235.938 29.408C236.45 29.4507 236.924 29.4773 237.362 29.488C237.81 29.4987 238.135 29.504 238.338 29.504C238.498 29.504 238.626 29.488 238.722 29.456C238.828 29.4133 238.93 29.3387 239.026 29.232C239.164 29.0933 239.276 28.8107 239.362 28.384C239.458 27.9467 239.538 27.3333 239.602 26.544C239.666 25.7547 239.724 24.7573 239.778 23.552C239.831 22.3467 239.879 20.912 239.922 19.248V18.88ZM235.954 16.416L237.81 16.848C237.607 17.6267 237.356 18.4053 237.058 19.184C236.77 19.9627 236.45 20.6987 236.098 21.392C235.756 22.0747 235.404 22.672 235.042 23.184C234.935 23.0773 234.78 22.9547 234.578 22.816C234.386 22.6667 234.188 22.5227 233.986 22.384C233.794 22.2453 233.623 22.1387 233.474 22.064C233.826 21.6053 234.156 21.0773 234.466 20.48C234.786 19.872 235.068 19.2213 235.314 18.528C235.57 17.824 235.783 17.12 235.954 16.416ZM235.17 23.504L236.674 22.656C236.94 23.0187 237.223 23.4187 237.522 23.856C237.82 24.2933 238.103 24.72 238.37 25.136C238.636 25.552 238.855 25.92 239.026 26.24L237.394 27.232C237.244 26.9013 237.042 26.5227 236.786 26.096C236.54 25.6693 236.274 25.232 235.986 24.784C235.708 24.3253 235.436 23.8987 235.17 23.504ZM250.69 20.24H255.682V21.712H250.69V20.24ZM253.154 18.16C252.866 18.5973 252.503 19.056 252.066 19.536C251.628 20.016 251.148 20.48 250.626 20.928C250.103 21.376 249.559 21.7653 248.994 22.096C248.887 21.8613 248.743 21.5893 248.562 21.28C248.38 20.9707 248.199 20.7147 248.018 20.512C248.594 20.2027 249.148 19.8187 249.682 19.36C250.226 18.9013 250.716 18.4107 251.154 17.888C251.591 17.3653 251.943 16.8747 252.21 16.416H253.97C254.343 16.9387 254.77 17.4507 255.25 17.952C255.73 18.4427 256.231 18.8907 256.754 19.296C257.287 19.6907 257.826 20.016 258.37 20.272C258.178 20.4853 257.986 20.752 257.794 21.072C257.602 21.392 257.431 21.6907 257.282 21.968C256.791 21.6693 256.284 21.3067 255.762 20.88C255.239 20.4427 254.754 19.9893 254.306 19.52C253.858 19.04 253.474 18.5867 253.154 18.16ZM250.402 23.728V25.008H251.458V23.728H250.402ZM248.994 22.448H252.93V26.288H248.994V22.448ZM254.946 23.728V25.008H256.082V23.728H254.946ZM253.522 22.448H257.57V26.288H253.522V22.448ZM250.306 26.464L252.034 26.832C251.799 27.888 251.426 28.816 250.914 29.616C250.402 30.416 249.74 31.0507 248.93 31.52C248.866 31.4027 248.77 31.264 248.642 31.104C248.514 30.944 248.375 30.784 248.226 30.624C248.087 30.4747 247.959 30.352 247.842 30.256C248.514 29.8827 249.052 29.3707 249.458 28.72C249.863 28.0693 250.146 27.3173 250.306 26.464ZM250.194 28.896L251.25 27.888C251.548 28.1333 251.868 28.4107 252.21 28.72C252.551 29.0187 252.812 29.2907 252.994 29.536L251.874 30.656C251.703 30.4107 251.452 30.1227 251.122 29.792C250.802 29.4613 250.492 29.1627 250.194 28.896ZM254.61 26.48L256.322 26.8C256.13 27.8667 255.799 28.7947 255.33 29.584C254.86 30.3627 254.226 30.9707 253.426 31.408C253.362 31.3013 253.266 31.1627 253.138 30.992C253.01 30.832 252.876 30.672 252.738 30.512C252.61 30.3627 252.487 30.2453 252.37 30.16C253.02 29.808 253.527 29.3227 253.89 28.704C254.252 28.0747 254.492 27.3333 254.61 26.48ZM254.338 28.912L255.49 27.792C255.799 28.0267 256.13 28.288 256.482 28.576C256.844 28.864 257.186 29.152 257.506 29.44C257.836 29.7173 258.103 29.968 258.306 30.192L257.074 31.456C256.882 31.2213 256.626 30.9547 256.306 30.656C255.996 30.3573 255.666 30.0533 255.314 29.744C254.972 29.4347 254.647 29.1573 254.338 28.912ZM243.33 19.728H248.546V21.504H243.33V19.728ZM245.282 16.4H247.01V31.424H245.282V16.4ZM245.25 20.944L246.306 21.296C246.199 21.936 246.06 22.5973 245.89 23.28C245.719 23.952 245.527 24.6187 245.314 25.28C245.1 25.9307 244.866 26.5387 244.61 27.104C244.364 27.6693 244.098 28.1547 243.81 28.56C243.724 28.3147 243.591 28.0267 243.41 27.696C243.239 27.3653 243.084 27.0933 242.946 26.88C243.202 26.528 243.447 26.1173 243.682 25.648C243.916 25.1787 244.135 24.6773 244.338 24.144C244.54 23.6107 244.716 23.072 244.866 22.528C245.026 21.9733 245.154 21.4453 245.25 20.944ZM246.93 22.096C247.015 22.2027 247.148 22.3947 247.33 22.672C247.522 22.9387 247.724 23.232 247.938 23.552C248.151 23.8613 248.343 24.1547 248.514 24.432C248.695 24.6987 248.818 24.8853 248.882 24.992L247.89 26.368C247.794 26.144 247.671 25.872 247.522 25.552C247.372 25.232 247.207 24.9013 247.026 24.56C246.855 24.2187 246.69 23.8987 246.53 23.6C246.38 23.3013 246.247 23.056 246.13 22.864L246.93 22.096ZM265.122 21.584V22.944H266.69V21.584H265.122ZM265.122 24.48V25.856H266.69V24.48H265.122ZM265.122 18.704V20.048H266.69V18.704H265.122ZM263.506 17.04H268.37V27.52H263.506V17.04ZM266.21 28.336L267.666 27.52C267.868 27.7653 268.076 28.0373 268.29 28.336C268.514 28.6347 268.716 28.928 268.898 29.216C269.09 29.504 269.244 29.76 269.362 29.984L267.826 30.896C267.73 30.672 267.591 30.4107 267.41 30.112C267.228 29.8133 267.031 29.5093 266.818 29.2C266.615 28.88 266.412 28.592 266.21 28.336ZM263.938 27.664L265.682 28.144C265.426 28.752 265.1 29.36 264.706 29.968C264.311 30.576 263.922 31.0827 263.538 31.488C263.42 31.392 263.266 31.28 263.074 31.152C262.892 31.024 262.706 30.9013 262.514 30.784C262.322 30.6667 262.156 30.5707 262.018 30.496C262.402 30.144 262.764 29.712 263.106 29.2C263.458 28.688 263.735 28.176 263.938 27.664ZM271.81 16.4H273.554V29.28C273.554 29.76 273.5 30.1387 273.394 30.416C273.298 30.6933 273.106 30.9067 272.818 31.056C272.54 31.2053 272.183 31.3013 271.746 31.344C271.319 31.3973 270.791 31.424 270.162 31.424C270.13 31.168 270.06 30.8587 269.954 30.496C269.847 30.144 269.735 29.84 269.618 29.584C270.023 29.5947 270.402 29.6053 270.754 29.616C271.106 29.616 271.346 29.616 271.474 29.616C271.602 29.6053 271.687 29.5787 271.73 29.536C271.783 29.4827 271.81 29.3973 271.81 29.28V16.4ZM269.17 18.048H270.818V27.328H269.17V18.048ZM259.65 17.936L260.738 16.544C261.026 16.6613 261.33 16.8053 261.65 16.976C261.98 17.1467 262.29 17.328 262.578 17.52C262.876 17.7013 263.116 17.8773 263.298 18.048L262.146 19.584C261.986 19.4027 261.762 19.216 261.474 19.024C261.196 18.8213 260.898 18.624 260.578 18.432C260.258 18.24 259.948 18.0747 259.65 17.936ZM259.042 22.224L260.098 20.8C260.396 20.9173 260.706 21.056 261.026 21.216C261.356 21.3653 261.666 21.5307 261.954 21.712C262.252 21.8827 262.492 22.048 262.674 22.208L261.554 23.76C261.383 23.6 261.154 23.424 260.866 23.232C260.588 23.04 260.29 22.8587 259.97 22.688C259.65 22.5067 259.34 22.352 259.042 22.224ZM259.314 30.272C259.516 29.856 259.735 29.3653 259.97 28.8C260.215 28.2347 260.46 27.6373 260.706 27.008C260.962 26.368 261.191 25.7387 261.394 25.12L262.946 26.112C262.775 26.688 262.583 27.2747 262.37 27.872C262.156 28.4587 261.938 29.04 261.714 29.616C261.49 30.1813 261.266 30.7307 261.042 31.264L259.314 30.272ZM276.642 16.928H288.514V18.384H276.642V16.928ZM275.474 24.144H289.73V25.632H275.474V24.144ZM277.794 20.784H281.074V21.904H277.794V20.784ZM277.442 22.432H281.074V23.568H277.442V22.432ZM284.034 22.432H287.714V23.568H284.034V22.432ZM284.034 20.784H287.346V21.904H284.034V20.784ZM281.634 17.504H283.474V23.696H281.634V17.504ZM280.114 27.472H281.842V31.312H280.114V27.472ZM283.554 27.472H285.282V31.312H283.554V27.472ZM275.538 18.976H289.666V22.144H287.89V20.256H277.25V22.144H275.538V18.976ZM276.658 26.4H287.442V27.904H278.482V31.376H276.658V26.4ZM287.042 26.4H288.882V29.68C288.882 30.064 288.839 30.368 288.754 30.592C288.679 30.8267 288.508 31.008 288.242 31.136C287.996 31.264 287.703 31.3387 287.362 31.36C287.031 31.392 286.652 31.408 286.226 31.408C286.194 31.1627 286.119 30.8907 286.002 30.592C285.884 30.304 285.772 30.0533 285.666 29.84C285.9 29.8507 286.13 29.856 286.354 29.856C286.578 29.856 286.732 29.856 286.818 29.856C286.903 29.856 286.962 29.8453 286.994 29.824C287.026 29.792 287.042 29.7387 287.042 29.664V26.4ZM281.65 24.736L283.762 24.752C283.602 25.2427 283.431 25.712 283.25 26.16C283.079 26.5973 282.919 26.9813 282.77 27.312L281.09 27.168C281.218 26.8053 281.33 26.4 281.426 25.952C281.532 25.504 281.607 25.0987 281.65 24.736ZM291.522 18.832H305.73V20.688H291.522V18.832ZM299.394 20.464C299.682 21.3493 300.05 22.2027 300.498 23.024C300.946 23.8347 301.458 24.5973 302.034 25.312C302.61 26.0267 303.25 26.6667 303.954 27.232C304.658 27.7867 305.42 28.2507 306.242 28.624C306.092 28.752 305.927 28.9173 305.746 29.12C305.564 29.312 305.388 29.52 305.218 29.744C305.058 29.9573 304.924 30.1547 304.818 30.336C303.698 29.7387 302.7 28.9653 301.826 28.016C300.951 27.0667 300.188 25.9893 299.538 24.784C298.887 23.568 298.338 22.272 297.89 20.896L299.394 20.464ZM303.554 20.992L305.25 22.176C304.887 22.5813 304.503 22.9973 304.098 23.424C303.692 23.84 303.287 24.24 302.882 24.624C302.476 24.9973 302.098 25.3333 301.746 25.632L300.338 24.56C300.679 24.2613 301.047 23.9093 301.442 23.504C301.836 23.0987 302.22 22.6773 302.594 22.24C302.967 21.8027 303.287 21.3867 303.554 20.992ZM300.578 17.536L301.714 16.32C302.034 16.4693 302.38 16.64 302.754 16.832C303.127 17.024 303.484 17.2267 303.826 17.44C304.178 17.6427 304.466 17.8293 304.69 18L303.49 19.344C303.276 19.1627 303.004 18.9653 302.674 18.752C302.343 18.5387 301.991 18.3253 301.618 18.112C301.255 17.8987 300.908 17.7067 300.578 17.536ZM292.146 22.24L293.602 21.216C293.911 21.4827 294.226 21.7813 294.546 22.112C294.866 22.4427 295.164 22.7733 295.442 23.104C295.719 23.424 295.943 23.7227 296.114 24L294.546 25.152C294.396 24.8747 294.188 24.5653 293.922 24.224C293.655 23.8827 293.367 23.536 293.058 23.184C292.748 22.832 292.444 22.5173 292.146 22.24ZM297.57 16.432H299.538V29.072C299.538 29.6373 299.474 30.0693 299.346 30.368C299.218 30.6667 298.983 30.896 298.642 31.056C298.322 31.2267 297.9 31.3333 297.378 31.376C296.855 31.4293 296.231 31.4507 295.506 31.44C295.474 31.1627 295.388 30.8267 295.25 30.432C295.122 30.0373 294.988 29.7013 294.85 29.424C295.34 29.4453 295.804 29.456 296.242 29.456C296.69 29.456 296.994 29.456 297.154 29.456C297.303 29.456 297.41 29.4293 297.474 29.376C297.538 29.312 297.57 29.2107 297.57 29.072V16.432ZM291.01 28.176C291.458 27.9413 291.97 27.6693 292.546 27.36C293.132 27.0507 293.751 26.7147 294.402 26.352C295.063 25.9787 295.714 25.6107 296.354 25.248L296.994 26.992C296.194 27.5147 295.367 28.0373 294.514 28.56C293.671 29.072 292.903 29.5307 292.21 29.936L291.01 28.176ZM309.682 26.032C310.172 26.032 310.61 26.1493 310.994 26.384C311.378 26.6187 311.687 26.9333 311.922 27.328C312.156 27.712 312.274 28.144 312.274 28.624C312.274 29.0933 312.156 29.5253 311.922 29.92C311.687 30.3147 311.378 30.6293 310.994 30.864C310.61 31.0987 310.172 31.216 309.682 31.216C309.212 31.216 308.78 31.0987 308.386 30.864C307.991 30.6293 307.676 30.3147 307.442 29.92C307.218 29.5253 307.106 29.0933 307.106 28.624C307.106 28.144 307.218 27.712 307.442 27.328C307.676 26.9333 307.991 26.6187 308.386 26.384C308.78 26.1493 309.212 26.032 309.682 26.032ZM309.698 30.064C310.092 30.064 310.428 29.9253 310.706 29.648C310.983 29.36 311.122 29.0187 311.122 28.624C311.122 28.3573 311.058 28.1173 310.93 27.904C310.802 27.68 310.626 27.504 310.402 27.376C310.188 27.248 309.954 27.184 309.698 27.184C309.431 27.184 309.191 27.248 308.978 27.376C308.764 27.504 308.588 27.68 308.45 27.904C308.322 28.1173 308.258 28.3573 308.258 28.624C308.258 28.8907 308.322 29.136 308.45 29.36C308.588 29.5733 308.764 29.744 308.978 29.872C309.191 30 309.431 30.064 309.698 30.064ZM113.523 47.1818V49.5455H108.068V47.1818H113.523ZM121.122 44.584V45.944H122.69V44.584H121.122ZM121.122 47.48V48.856H122.69V47.48H121.122ZM121.122 41.704V43.048H122.69V41.704H121.122ZM119.506 40.04H124.37V50.52H119.506V40.04ZM122.21 51.336L123.666 50.52C123.868 50.7653 124.076 51.0373 124.29 51.336C124.514 51.6347 124.716 51.928 124.898 52.216C125.09 52.504 125.244 52.76 125.362 52.984L123.826 53.896C123.73 53.672 123.591 53.4107 123.41 53.112C123.228 52.8133 123.031 52.5093 122.818 52.2C122.615 51.88 122.412 51.592 122.21 51.336ZM119.938 50.664L121.682 51.144C121.426 51.752 121.1 52.36 120.706 52.968C120.311 53.576 119.922 54.0827 119.538 54.488C119.42 54.392 119.266 54.28 119.074 54.152C118.892 54.024 118.706 53.9013 118.514 53.784C118.322 53.6667 118.156 53.5707 118.018 53.496C118.402 53.144 118.764 52.712 119.106 52.2C119.458 51.688 119.735 51.176 119.938 50.664ZM127.81 39.4H129.554V52.28C129.554 52.76 129.5 53.1387 129.394 53.416C129.298 53.6933 129.106 53.9067 128.818 54.056C128.54 54.2053 128.183 54.3013 127.746 54.344C127.319 54.3973 126.791 54.424 126.162 54.424C126.13 54.168 126.06 53.8587 125.954 53.496C125.847 53.144 125.735 52.84 125.618 52.584C126.023 52.5947 126.402 52.6053 126.754 52.616C127.106 52.616 127.346 52.616 127.474 52.616C127.602 52.6053 127.687 52.5787 127.73 52.536C127.783 52.4827 127.81 52.3973 127.81 52.28V39.4ZM125.17 41.048H126.818V50.328H125.17V41.048ZM115.65 40.936L116.738 39.544C117.026 39.6613 117.33 39.8053 117.65 39.976C117.98 40.1467 118.29 40.328 118.578 40.52C118.876 40.7013 119.116 40.8773 119.298 41.048L118.146 42.584C117.986 42.4027 117.762 42.216 117.474 42.024C117.196 41.8213 116.898 41.624 116.578 41.432C116.258 41.24 115.948 41.0747 115.65 40.936ZM115.042 45.224L116.098 43.8C116.396 43.9173 116.706 44.056 117.026 44.216C117.356 44.3653 117.666 44.5307 117.954 44.712C118.252 44.8827 118.492 45.048 118.674 45.208L117.554 46.76C117.383 46.6 117.154 46.424 116.866 46.232C116.588 46.04 116.29 45.8587 115.97 45.688C115.65 45.5067 115.34 45.352 115.042 45.224ZM115.314 53.272C115.516 52.856 115.735 52.3653 115.97 51.8C116.215 51.2347 116.46 50.6373 116.706 50.008C116.962 49.368 117.191 48.7387 117.394 48.12L118.946 49.112C118.775 49.688 118.583 50.2747 118.37 50.872C118.156 51.4587 117.938 52.04 117.714 52.616C117.49 53.1813 117.266 53.7307 117.042 54.264L115.314 53.272ZM136.818 51.768C137.468 51.6613 138.242 51.5333 139.138 51.384C140.034 51.2347 140.946 51.08 141.874 50.92L142.002 52.504C141.17 52.6853 140.332 52.8613 139.49 53.032C138.658 53.2027 137.895 53.3627 137.202 53.512L136.818 51.768ZM137.122 45.928H141.506V47.576H137.122V45.928ZM137.138 42.44H145.938V44.184H137.138V42.44ZM143.522 40.248L144.834 39.576C145.1 39.864 145.367 40.1947 145.634 40.568C145.9 40.9307 146.098 41.256 146.226 41.544L144.834 42.296C144.716 42.008 144.53 41.672 144.274 41.288C144.028 40.904 143.778 40.5573 143.522 40.248ZM138.466 46.568H140.242V51.944L138.466 52.28V46.568ZM141.714 39.416H143.554C143.532 40.8133 143.532 42.1413 143.554 43.4C143.575 44.648 143.612 45.8 143.666 46.856C143.73 47.9013 143.804 48.8133 143.89 49.592C143.986 50.36 144.098 50.9573 144.226 51.384C144.354 51.8107 144.498 52.0347 144.658 52.056C144.764 52.056 144.85 51.8853 144.914 51.544C144.978 51.2027 145.026 50.7227 145.058 50.104C145.154 50.2533 145.287 50.4027 145.458 50.552C145.639 50.7013 145.815 50.84 145.986 50.968C146.167 51.096 146.306 51.192 146.402 51.256C146.263 52.1413 146.087 52.8133 145.874 53.272C145.671 53.7307 145.452 54.04 145.218 54.2C144.994 54.36 144.78 54.44 144.578 54.44C144.087 54.4293 143.676 54.1947 143.346 53.736C143.015 53.288 142.743 52.6373 142.53 51.784C142.327 50.9307 142.167 49.896 142.05 48.68C141.932 47.464 141.847 46.0773 141.794 44.52C141.751 42.9627 141.724 41.2613 141.714 39.416ZM131.794 44.312H136.53V45.768H131.794V44.312ZM131.858 39.912H136.45V41.352H131.858V39.912ZM131.794 46.504H136.53V47.944H131.794V46.504ZM131.074 42.056H136.898V43.576H131.074V42.056ZM132.626 48.712H136.514V53.592H132.626V52.072H134.914V50.232H132.626V48.712ZM131.762 48.712H133.346V54.216H131.762V48.712ZM153.618 39.384H155.554V41.544H153.618V39.384ZM147.762 40.392H161.458V43.208H159.65V41.88H149.49V43.208H147.762V40.392ZM153.778 42.808H155.362C155.319 43.3307 155.266 43.8747 155.202 44.44C155.138 45.0053 155.074 45.4907 155.01 45.896H153.41C153.484 45.4693 153.554 44.9787 153.618 44.424C153.682 43.8587 153.735 43.32 153.778 42.808ZM151.186 49.208V49.688H158.034V49.208H151.186ZM151.186 50.648V51.144H158.034V50.648H151.186ZM151.186 47.8V48.264H158.034V47.8H151.186ZM149.33 46.792H159.986V52.136H149.33V46.792ZM155.266 52.856L156.514 51.816C157.122 51.976 157.746 52.152 158.386 52.344C159.026 52.5253 159.634 52.7067 160.21 52.888C160.786 53.0693 161.282 53.2293 161.698 53.368L160.034 54.44C159.682 54.3013 159.25 54.1413 158.738 53.96C158.226 53.7787 157.671 53.5867 157.074 53.384C156.487 53.192 155.884 53.016 155.266 52.856ZM151.746 43.368L151.474 45.352H157.282L157.458 43.368H151.746ZM150.162 42.392H159.314L158.946 46.328H149.666L150.162 42.392ZM152.45 51.784L153.938 52.808C153.5 53.0533 152.978 53.2827 152.37 53.496C151.762 53.7093 151.122 53.896 150.45 54.056C149.778 54.216 149.122 54.344 148.482 54.44C148.354 54.2587 148.178 54.0453 147.954 53.8C147.73 53.5547 147.522 53.352 147.33 53.192C147.959 53.1067 148.599 52.9893 149.25 52.84C149.911 52.6907 150.524 52.5253 151.09 52.344C151.666 52.152 152.119 51.9653 152.45 51.784ZM147.49 43.672H151.058V43.848H157.938V43.672H161.73V45.048H157.938V44.872H151.058V45.048H147.49V43.672ZM171.602 43.224H175.826V44.632H171.602V43.224ZM171.234 46.536V48.04H172.13V46.536H171.234ZM169.986 45.336H173.458V49.256H169.986V45.336ZM175.266 46.536V48.04H176.274V46.536H175.266ZM174.018 45.336H177.602V49.256H174.018V45.336ZM171.042 49.528L172.61 49.624C172.503 50.7227 172.268 51.6773 171.906 52.488C171.543 53.2987 171.004 53.9653 170.29 54.488C170.215 54.392 170.108 54.2747 169.97 54.136C169.842 53.9973 169.703 53.8587 169.554 53.72C169.404 53.5813 169.271 53.4693 169.154 53.384C169.772 52.9893 170.22 52.4667 170.498 51.816C170.786 51.1547 170.967 50.392 171.042 49.528ZM171.09 51.896L172.082 50.92C172.38 51.2187 172.7 51.5493 173.042 51.912C173.383 52.2747 173.639 52.5893 173.81 52.856L172.786 53.944C172.615 53.6667 172.364 53.336 172.034 52.952C171.703 52.5573 171.388 52.2053 171.09 51.896ZM175.01 49.512L176.61 49.608C176.503 50.7067 176.263 51.6613 175.89 52.472C175.527 53.2827 174.988 53.9493 174.274 54.472C174.199 54.376 174.092 54.2533 173.954 54.104C173.815 53.9653 173.671 53.8267 173.522 53.688C173.372 53.5493 173.239 53.4373 173.122 53.352C173.74 52.9573 174.194 52.4347 174.482 51.784C174.77 51.1333 174.946 50.376 175.01 49.512ZM174.978 51.944L176.13 51.128C176.375 51.3733 176.626 51.64 176.882 51.928C177.148 52.2053 177.399 52.4827 177.634 52.76C177.868 53.0373 178.055 53.2827 178.194 53.496L176.978 54.44C176.839 54.216 176.658 53.9547 176.434 53.656C176.21 53.368 175.97 53.0747 175.714 52.776C175.458 52.4773 175.212 52.2 174.978 51.944ZM173.666 41.128C173.42 41.544 173.1 41.9813 172.706 42.44C172.322 42.888 171.895 43.3147 171.426 43.72C170.967 44.1253 170.487 44.472 169.986 44.76C169.89 44.5147 169.756 44.2373 169.586 43.928C169.426 43.6187 169.266 43.3627 169.106 43.16C169.618 42.904 170.108 42.568 170.578 42.152C171.047 41.736 171.468 41.2933 171.842 40.824C172.215 40.344 172.514 39.88 172.738 39.432H174.45C174.77 39.9333 175.138 40.4187 175.554 40.888C175.97 41.3573 176.412 41.7787 176.882 42.152C177.351 42.5147 177.831 42.808 178.322 43.032C178.151 43.256 177.975 43.528 177.794 43.848C177.623 44.1573 177.474 44.4453 177.346 44.712C176.876 44.4453 176.407 44.1147 175.938 43.72C175.479 43.3253 175.052 42.904 174.658 42.456C174.263 41.9973 173.932 41.5547 173.666 41.128ZM164.674 42.472H169.058V43.88H164.674V42.472ZM164.674 44.856H169.106V46.28H164.674V44.856ZM163.73 47.288H168.642V48.728H163.73V47.288ZM166.21 40.904H167.666V48.12H166.21V40.904ZM166.786 49.528L167.49 49.304C167.65 49.624 167.799 49.976 167.938 50.36C168.076 50.7333 168.167 51.0587 168.21 51.336L167.458 51.608C167.415 51.3307 167.33 51 167.202 50.616C167.074 50.2213 166.935 49.8587 166.786 49.528ZM165.81 49.672L166.578 49.528C166.706 49.944 166.812 50.3973 166.898 50.888C166.983 51.368 167.036 51.784 167.058 52.136L166.242 52.28C166.231 51.9387 166.183 51.5227 166.098 51.032C166.023 50.5413 165.927 50.088 165.81 49.672ZM164.802 49.784L165.618 49.688C165.692 50.168 165.74 50.68 165.762 51.224C165.783 51.768 165.783 52.2427 165.762 52.648L164.898 52.744C164.93 52.3493 164.935 51.88 164.914 51.336C164.903 50.7813 164.866 50.264 164.802 49.784ZM163.634 49.448L164.658 49.64C164.636 50.1307 164.599 50.6213 164.546 51.112C164.503 51.592 164.428 52.04 164.322 52.456C164.226 52.872 164.076 53.24 163.874 53.56L162.898 53.048C163.154 52.632 163.335 52.104 163.442 51.464C163.548 50.8133 163.612 50.1413 163.634 49.448ZM163.73 39.992H169.33V41.48H165.234V48.136H163.73V39.992ZM168.018 47.288H169.522C169.522 47.288 169.522 47.368 169.522 47.528C169.522 47.6773 169.516 47.8 169.506 47.896C169.474 49.2293 169.436 50.3067 169.394 51.128C169.362 51.9387 169.308 52.5573 169.234 52.984C169.17 53.4107 169.074 53.7093 168.946 53.88C168.818 54.0613 168.684 54.1893 168.546 54.264C168.407 54.3387 168.236 54.392 168.034 54.424C167.884 54.456 167.687 54.472 167.442 54.472C167.196 54.4827 166.94 54.488 166.674 54.488C166.663 54.264 166.62 54.0133 166.546 53.736C166.471 53.4693 166.386 53.24 166.29 53.048C166.503 53.0693 166.69 53.08 166.85 53.08C167.01 53.0907 167.143 53.096 167.25 53.096C167.335 53.096 167.41 53.0853 167.474 53.064C167.538 53.0427 167.596 52.9893 167.65 52.904C167.714 52.7973 167.767 52.568 167.81 52.216C167.863 51.8533 167.906 51.2987 167.938 50.552C167.97 49.8053 167.996 48.808 168.018 47.56V47.288ZM187.874 39.624H189.81V43.368H187.874V39.624ZM184.098 42.296H193.842V44.12H184.098V42.296ZM185.218 45.144L186.946 44.856C187.127 45.5173 187.298 46.232 187.458 47C187.618 47.7573 187.751 48.4933 187.858 49.208C187.975 49.912 188.044 50.5253 188.066 51.048L186.178 51.448C186.156 50.9147 186.103 50.2907 186.018 49.576C185.932 48.8613 185.82 48.12 185.682 47.352C185.543 46.5733 185.388 45.8373 185.218 45.144ZM190.61 44.744L192.69 45.08C192.562 45.7307 192.418 46.3973 192.258 47.08C192.098 47.7627 191.932 48.4293 191.762 49.08C191.591 49.7307 191.415 50.3547 191.234 50.952C191.052 51.5387 190.882 52.0667 190.722 52.536L188.994 52.168C189.164 51.688 189.324 51.144 189.474 50.536C189.634 49.9173 189.783 49.272 189.922 48.6C190.071 47.928 190.204 47.2667 190.322 46.616C190.439 45.9547 190.535 45.3307 190.61 44.744ZM183.778 51.944H194.178V53.752H183.778V51.944ZM182.674 39.448L184.466 40.04C184.103 40.936 183.671 41.8373 183.17 42.744C182.679 43.64 182.146 44.488 181.57 45.288C181.004 46.0773 180.418 46.776 179.81 47.384C179.746 47.224 179.655 47.016 179.538 46.76C179.42 46.504 179.292 46.248 179.154 45.992C179.015 45.736 178.892 45.5333 178.786 45.384C179.298 44.904 179.794 44.3493 180.274 43.72C180.764 43.0907 181.212 42.408 181.618 41.672C182.023 40.936 182.375 40.1947 182.674 39.448ZM181.122 43.864L182.946 42.04V42.056V54.392H181.122V43.864ZM205.218 41.304V42.232H207.074V41.304H205.218ZM201.65 41.304V42.232H203.474V41.304H201.65ZM198.114 41.304V42.232H199.89V41.304H198.114ZM196.274 40.024H209.01V43.512H196.274V40.024ZM195.554 44.136H209.618V45.56H195.554V44.136ZM197.17 52.424H209.97V53.88H197.17V52.424ZM196.386 46.408H198.338V54.456H196.386V46.408ZM201.186 48.696V49.272H206.626V48.696H201.186ZM201.186 50.216V50.808H206.626V50.216H201.186ZM201.186 47.192V47.752H206.626V47.192H201.186ZM199.41 46.184H208.466V51.8H199.41V46.184ZM201.778 43.208L203.714 43.32C203.639 43.896 203.554 44.504 203.458 45.144C203.362 45.7733 203.271 46.3067 203.186 46.744H201.33C201.426 46.2747 201.511 45.7147 201.586 45.064C201.66 44.4027 201.724 43.784 201.778 43.208ZM211.634 40.472H225.586V42.44H211.634V40.472ZM219.362 45.848L220.85 44.6C221.276 44.9093 221.735 45.2507 222.226 45.624C222.727 45.9867 223.223 46.3653 223.714 46.76C224.215 47.1547 224.679 47.544 225.106 47.928C225.532 48.3013 225.895 48.6427 226.194 48.952L224.562 50.44C224.295 50.12 223.954 49.768 223.538 49.384C223.132 48.9893 222.69 48.584 222.21 48.168C221.74 47.752 221.255 47.3467 220.754 46.952C220.263 46.5573 219.799 46.1893 219.362 45.848ZM218.722 41.208L220.85 41.96C220.242 43.08 219.516 44.1733 218.674 45.24C217.842 46.3067 216.903 47.2933 215.858 48.2C214.812 49.096 213.676 49.864 212.45 50.504C212.354 50.3333 212.226 50.1413 212.066 49.928C211.906 49.7147 211.74 49.5067 211.57 49.304C211.41 49.0907 211.26 48.9093 211.122 48.76C211.986 48.3653 212.802 47.8853 213.57 47.32C214.338 46.744 215.047 46.12 215.698 45.448C216.359 44.776 216.94 44.0827 217.442 43.368C217.954 42.6427 218.38 41.9227 218.722 41.208ZM217.554 45.08L219.65 42.984V54.408H217.554V45.08ZM230.418 43.88H238.818V45.416H230.418V43.88ZM233.666 42.344H235.474V47.592H233.666V42.344ZM232.818 48.136V49.528H236.37V48.136H232.818ZM231.154 46.712H238.146V50.952H231.154V46.712ZM227.794 40.104H241.442V54.472H239.442V41.88H229.714V54.472H227.794V40.104ZM228.914 51.992H240.21V53.768H228.914V51.992ZM246.162 44.232H255.01V46.072H246.162V44.232ZM250.594 48.072H255.986V49.88H250.594V48.072ZM249.586 45.304H251.586V53.032L249.586 52.792V45.304ZM245.762 46.952L247.762 47.16C247.548 48.792 247.186 50.232 246.674 51.48C246.162 52.728 245.447 53.7467 244.53 54.536C244.423 54.4187 244.274 54.2747 244.082 54.104C243.89 53.9333 243.687 53.768 243.474 53.608C243.271 53.448 243.095 53.32 242.946 53.224C243.81 52.584 244.46 51.7253 244.898 50.648C245.335 49.56 245.623 48.328 245.762 46.952ZM247.314 48.968C247.559 49.6933 247.879 50.2853 248.274 50.744C248.679 51.192 249.143 51.5333 249.666 51.768C250.199 51.992 250.78 52.1467 251.41 52.232C252.039 52.3173 252.706 52.36 253.41 52.36C253.58 52.36 253.81 52.36 254.098 52.36C254.396 52.36 254.722 52.36 255.074 52.36C255.436 52.36 255.804 52.36 256.178 52.36C256.551 52.3493 256.898 52.344 257.218 52.344C257.538 52.3333 257.804 52.3227 258.018 52.312C257.922 52.472 257.826 52.6693 257.73 52.904C257.644 53.128 257.564 53.3627 257.49 53.608C257.415 53.8533 257.362 54.0773 257.33 54.28H256.514H253.314C252.386 54.28 251.532 54.216 250.754 54.088C249.975 53.96 249.271 53.7253 248.642 53.384C248.023 53.0533 247.468 52.5733 246.978 51.944C246.498 51.3147 246.087 50.4933 245.746 49.48L247.314 48.968ZM249.554 39.432H251.602V42.344H249.554V39.432ZM243.73 41.048H257.474V45.064H255.506V42.856H245.618V45.064H243.73V41.048ZM261.682 49.032C262.172 49.032 262.61 49.1493 262.994 49.384C263.378 49.6187 263.687 49.9333 263.922 50.328C264.156 50.712 264.274 51.144 264.274 51.624C264.274 52.0933 264.156 52.5253 263.922 52.92C263.687 53.3147 263.378 53.6293 262.994 53.864C262.61 54.0987 262.172 54.216 261.682 54.216C261.212 54.216 260.78 54.0987 260.386 53.864C259.991 53.6293 259.676 53.3147 259.442 52.92C259.218 52.5253 259.106 52.0933 259.106 51.624C259.106 51.144 259.218 50.712 259.442 50.328C259.676 49.9333 259.991 49.6187 260.386 49.384C260.78 49.1493 261.212 49.032 261.682 49.032ZM261.698 53.064C262.092 53.064 262.428 52.9253 262.706 52.648C262.983 52.36 263.122 52.0187 263.122 51.624C263.122 51.3573 263.058 51.1173 262.93 50.904C262.802 50.68 262.626 50.504 262.402 50.376C262.188 50.248 261.954 50.184 261.698 50.184C261.431 50.184 261.191 50.248 260.978 50.376C260.764 50.504 260.588 50.68 260.45 50.904C260.322 51.1173 260.258 51.3573 260.258 51.624C260.258 51.8907 260.322 52.136 260.45 52.36C260.588 52.5733 260.764 52.744 260.978 52.872C261.191 53 261.431 53.064 261.698 53.064ZM113.523 70.1818V72.5455H108.068V70.1818H113.523ZM118.85 68.64V74.544H117.01V70.416H115.202V68.64H118.85ZM118.85 73.776C119.159 74.3093 119.596 74.704 120.162 74.96C120.727 75.2053 121.415 75.344 122.226 75.376C122.706 75.3973 123.282 75.4133 123.954 75.424C124.636 75.424 125.346 75.4187 126.082 75.408C126.828 75.3973 127.554 75.3813 128.258 75.36C128.972 75.328 129.612 75.2853 130.178 75.232C130.103 75.3707 130.023 75.5573 129.938 75.792C129.863 76.016 129.788 76.2453 129.714 76.48C129.65 76.7147 129.602 76.9227 129.57 77.104C129.079 77.136 128.514 77.1573 127.874 77.168C127.234 77.1787 126.572 77.184 125.89 77.184C125.207 77.1947 124.546 77.1947 123.906 77.184C123.266 77.184 122.7 77.1733 122.21 77.152C121.25 77.1093 120.434 76.9547 119.762 76.688C119.09 76.4213 118.514 75.9787 118.034 75.36C117.724 75.68 117.394 75.9947 117.042 76.304C116.7 76.624 116.327 76.9547 115.922 77.296L115.01 75.392C115.351 75.168 115.708 74.9173 116.082 74.64C116.466 74.3627 116.834 74.0747 117.186 73.776H118.85ZM115.266 63.904L116.722 62.816C117.031 63.0507 117.351 63.3173 117.682 63.616C118.012 63.9147 118.316 64.2133 118.594 64.512C118.871 64.8107 119.095 65.0933 119.266 65.36L117.682 66.576C117.532 66.3093 117.324 66.0213 117.058 65.712C116.802 65.392 116.514 65.0773 116.194 64.768C115.874 64.448 115.564 64.16 115.266 63.904ZM119.506 63.504H129.81V64.992H119.506V63.504ZM122.066 68.4H127.218V69.568H122.066V68.4ZM123.602 62.4H125.458V64.4H123.602V62.4ZM123.938 67.504H125.314V70.752H123.938V67.504ZM119.922 66.128H128.306V67.584H121.65V74.72H119.922V66.128ZM122.466 70.464H123.778V74H122.466V70.464ZM123.202 70.464H126.834V73.488H123.202V72.416H125.506V71.52H123.202V70.464ZM127.698 66.128H129.458V73.008C129.458 73.4027 129.415 73.7173 129.33 73.952C129.244 74.176 129.074 74.3573 128.818 74.496C128.551 74.624 128.242 74.704 127.89 74.736C127.538 74.768 127.127 74.784 126.658 74.784C126.626 74.5493 126.556 74.2827 126.45 73.984C126.354 73.6853 126.252 73.4293 126.146 73.216C126.412 73.2267 126.674 73.232 126.93 73.232C127.186 73.232 127.362 73.232 127.458 73.232C127.554 73.232 127.618 73.216 127.65 73.184C127.682 73.1413 127.698 73.0773 127.698 72.992V66.128ZM126.162 64.576L127.97 64.96C127.81 65.2693 127.66 65.5627 127.522 65.84C127.383 66.1173 127.255 66.3627 127.138 66.576L125.602 66.192C125.708 65.9467 125.815 65.6747 125.922 65.376C126.028 65.0667 126.108 64.8 126.162 64.576ZM121.346 65.056L122.93 64.688C123.068 64.9013 123.191 65.152 123.298 65.44C123.415 65.7173 123.49 65.9627 123.522 66.176L121.858 66.576C121.836 66.3733 121.778 66.128 121.682 65.84C121.586 65.552 121.474 65.2907 121.346 65.056ZM131.202 64.848H138.194V66.624H131.202V64.848ZM133.794 68.336H136.418V70.08H133.794V68.336ZM133.73 62.432H135.618V65.44H133.73V62.432ZM141.778 64.576C141.575 65.152 141.303 65.7653 140.962 66.416C140.631 67.0667 140.236 67.6853 139.778 68.272C139.33 68.8587 138.834 69.3547 138.29 69.76C138.204 69.4827 138.071 69.168 137.89 68.816C137.719 68.464 137.559 68.1707 137.41 67.936C137.804 67.6587 138.172 67.3067 138.514 66.88C138.866 66.4427 139.186 65.968 139.474 65.456C139.762 64.944 140.012 64.4213 140.226 63.888C140.45 63.3547 140.631 62.8427 140.77 62.352H142.658C142.914 63.0987 143.223 63.8293 143.586 64.544C143.959 65.2587 144.37 65.904 144.818 66.48C145.276 67.0453 145.756 67.4773 146.258 67.776C146.098 68.0427 145.927 68.3573 145.746 68.72C145.575 69.072 145.431 69.408 145.314 69.728C144.78 69.3333 144.284 68.848 143.826 68.272C143.367 67.696 142.962 67.088 142.61 66.448C142.268 65.7973 141.991 65.1733 141.778 64.576ZM132.754 65.968H134.642C134.62 67.1733 134.583 68.336 134.53 69.456C134.476 70.5653 134.37 71.616 134.21 72.608C134.06 73.6 133.826 74.512 133.506 75.344C133.196 76.176 132.775 76.912 132.242 77.552C132.103 77.3173 131.9 77.056 131.634 76.768C131.367 76.4907 131.116 76.272 130.882 76.112C131.34 75.5573 131.692 74.9227 131.938 74.208C132.194 73.4827 132.375 72.688 132.482 71.824C132.599 70.96 132.668 70.0373 132.69 69.056C132.722 68.0747 132.743 67.0453 132.754 65.968ZM135.81 68.336H137.634C137.634 68.336 137.634 68.3893 137.634 68.496C137.634 68.592 137.634 68.6987 137.634 68.816C137.634 68.9333 137.628 69.0293 137.618 69.104C137.596 70.3733 137.57 71.4613 137.538 72.368C137.516 73.264 137.484 74.0053 137.442 74.592C137.41 75.168 137.356 75.6213 137.282 75.952C137.218 76.2827 137.132 76.5227 137.026 76.672C136.876 76.896 136.716 77.056 136.546 77.152C136.386 77.248 136.188 77.3173 135.954 77.36C135.751 77.392 135.495 77.4133 135.186 77.424C134.887 77.4347 134.567 77.4347 134.226 77.424C134.215 77.168 134.167 76.8747 134.082 76.544C133.996 76.2133 133.884 75.9253 133.746 75.68C134.002 75.7013 134.236 75.7173 134.45 75.728C134.663 75.728 134.834 75.728 134.962 75.728C135.058 75.7387 135.143 75.728 135.218 75.696C135.292 75.664 135.356 75.5947 135.41 75.488C135.495 75.3707 135.564 75.088 135.618 74.64C135.671 74.1813 135.714 73.4773 135.746 72.528C135.778 71.568 135.799 70.2933 135.81 68.704V68.336ZM139.922 69.696L141.186 68.496C141.527 68.7093 141.879 68.9547 142.242 69.232C142.604 69.4987 142.946 69.776 143.266 70.064C143.586 70.3413 143.836 70.6027 144.018 70.848L142.658 72.192C142.487 71.936 142.247 71.664 141.938 71.376C141.639 71.0773 141.314 70.784 140.962 70.496C140.61 70.1973 140.263 69.9307 139.922 69.696ZM138.562 74.064L139.714 72.576C140.183 72.7787 140.668 73.008 141.17 73.264C141.682 73.52 142.183 73.792 142.674 74.08C143.175 74.3573 143.639 74.64 144.066 74.928C144.503 75.216 144.866 75.4933 145.154 75.76L143.874 77.44C143.607 77.1733 143.266 76.8853 142.85 76.576C142.444 76.2773 142.002 75.9787 141.522 75.68C141.042 75.3813 140.546 75.0933 140.034 74.816C139.522 74.5387 139.031 74.288 138.562 74.064ZM149.922 65.312H161.058V67.184H149.922V65.312ZM149.25 70.016H160.434V71.872H149.25V70.016ZM147.41 75.104H161.874V76.976H147.41V75.104ZM153.618 62.4H155.634V76.016H153.618V62.4ZM149.922 62.608L151.906 63.056C151.682 63.8773 151.404 64.688 151.074 65.488C150.743 66.288 150.386 67.0347 150.002 67.728C149.618 68.4107 149.218 69.008 148.802 69.52C148.674 69.4027 148.503 69.2747 148.29 69.136C148.087 68.9867 147.874 68.8427 147.65 68.704C147.426 68.5653 147.234 68.4533 147.074 68.368C147.5 67.92 147.89 67.3867 148.242 66.768C148.604 66.1493 148.924 65.4827 149.202 64.768C149.49 64.0533 149.73 63.3333 149.922 62.608ZM165.314 67.616H177.922V69.152H165.314V67.616ZM164.242 63.488H177.154V64.992H164.242V63.488ZM168.146 70.384H176.994V71.888H168.146V70.384ZM167.858 72.912H176.53V74.368H167.858V72.912ZM166.498 75.584H177.794V77.136H166.498V75.584ZM169.586 62.416H171.522V64.672H169.586V62.416ZM171.218 69.344H173.106V76.16H171.218V69.344ZM164.354 67.616H166.226V70.304C166.226 70.8267 166.199 71.408 166.146 72.048C166.103 72.688 166.018 73.344 165.89 74.016C165.762 74.6773 165.58 75.3173 165.346 75.936C165.111 76.5547 164.807 77.12 164.434 77.632C164.338 77.5147 164.194 77.376 164.002 77.216C163.81 77.056 163.612 76.9013 163.41 76.752C163.218 76.6027 163.058 76.4907 162.93 76.416C163.367 75.8187 163.682 75.1573 163.874 74.432C164.076 73.7067 164.204 72.9813 164.258 72.256C164.322 71.5307 164.354 70.8747 164.354 70.288V67.616ZM168.098 69.152L169.794 69.552C169.548 70.2347 169.234 70.896 168.85 71.536C168.466 72.1653 168.055 72.688 167.618 73.104C167.511 73.008 167.372 72.896 167.202 72.768C167.031 72.64 166.855 72.5173 166.674 72.4C166.492 72.272 166.338 72.176 166.21 72.112C166.626 71.7493 166.999 71.3067 167.33 70.784C167.66 70.2613 167.916 69.7173 168.098 69.152ZM166.45 65.616L167.634 64.72C168.284 64.8587 168.956 65.0187 169.65 65.2C170.354 65.3813 171.052 65.5733 171.746 65.776C172.45 65.968 173.116 66.1653 173.746 66.368C174.386 66.5707 174.951 66.7573 175.442 66.928L174.274 67.904C173.804 67.7227 173.255 67.5307 172.626 67.328C172.007 67.1147 171.346 66.9067 170.642 66.704C169.948 66.5013 169.239 66.3093 168.514 66.128C167.799 65.936 167.111 65.7653 166.45 65.616ZM173.618 64.496L174.898 65.184C174.386 65.5147 173.794 65.824 173.122 66.112C172.46 66.4 171.756 66.6613 171.01 66.896C170.274 67.12 169.522 67.3227 168.754 67.504C167.986 67.6747 167.244 67.824 166.53 67.952C166.466 67.792 166.359 67.5947 166.21 67.36C166.071 67.1253 165.954 66.9333 165.858 66.784C166.54 66.688 167.25 66.5653 167.986 66.416C168.732 66.2667 169.458 66.0907 170.162 65.888C170.866 65.6853 171.516 65.472 172.114 65.248C172.722 65.0133 173.223 64.7627 173.618 64.496ZM179.25 63.248H184.882V65.024H179.25V63.248ZM179.394 67.824H184.722V69.584H179.394V67.824ZM178.866 73.376C179.388 73.248 179.98 73.104 180.642 72.944C181.314 72.7733 182.018 72.5867 182.754 72.384C183.49 72.1813 184.226 71.9787 184.962 71.776L185.202 73.472C184.199 73.7707 183.18 74.0747 182.146 74.384C181.111 74.6827 180.183 74.9493 179.362 75.184L178.866 73.376ZM187.298 67.024V68.016H191.49V67.024H187.298ZM187.298 69.472V70.464H191.49V69.472H187.298ZM187.298 64.576V65.568H191.49V64.576H187.298ZM185.506 63.024H193.378V72.048H185.506V63.024ZM189.554 71.328H191.378V75.184C191.378 75.4187 191.394 75.568 191.426 75.632C191.468 75.6853 191.559 75.712 191.698 75.712C191.73 75.712 191.788 75.712 191.874 75.712C191.97 75.712 192.066 75.712 192.162 75.712C192.258 75.712 192.322 75.712 192.354 75.712C192.45 75.712 192.519 75.6693 192.562 75.584C192.615 75.4987 192.652 75.3227 192.674 75.056C192.706 74.7787 192.727 74.3787 192.738 73.856C192.866 73.952 193.02 74.048 193.202 74.144C193.394 74.2293 193.591 74.3093 193.794 74.384C194.007 74.448 194.194 74.5067 194.354 74.56C194.3 75.2853 194.204 75.8507 194.066 76.256C193.938 76.6613 193.751 76.944 193.506 77.104C193.271 77.2747 192.962 77.36 192.578 77.36C192.503 77.36 192.407 77.36 192.29 77.36C192.183 77.36 192.071 77.36 191.954 77.36C191.836 77.36 191.724 77.36 191.618 77.36C191.511 77.36 191.42 77.36 191.346 77.36C190.855 77.36 190.482 77.2907 190.226 77.152C189.97 77.0133 189.794 76.784 189.698 76.464C189.602 76.1547 189.554 75.7333 189.554 75.2V71.328ZM186.706 71.792H188.594C188.53 72.4853 188.423 73.1253 188.274 73.712C188.135 74.288 187.906 74.816 187.586 75.296C187.266 75.776 186.823 76.2027 186.258 76.576C185.703 76.9493 184.988 77.2693 184.114 77.536C184.05 77.376 183.959 77.1947 183.842 76.992C183.724 76.8 183.596 76.608 183.458 76.416C183.319 76.2347 183.186 76.08 183.058 75.952C183.804 75.7707 184.412 75.5467 184.882 75.28C185.351 75.0027 185.708 74.6933 185.954 74.352C186.199 74 186.375 73.616 186.482 73.2C186.588 72.7733 186.663 72.304 186.706 71.792ZM181.202 63.952H183.042V73.344L181.202 73.632V63.952ZM199.986 68.864H210.13V70.48H199.986V68.864ZM201.73 71.232H208.306V72.752H201.73V71.232ZM202.338 69.456L203.986 69.872C203.591 70.7893 203.052 71.6373 202.37 72.416C201.698 73.184 200.983 73.8187 200.226 74.32C200.13 74.2133 200.002 74.0853 199.842 73.936C199.692 73.776 199.532 73.6267 199.362 73.488C199.202 73.3493 199.058 73.2373 198.93 73.152C199.676 72.7467 200.348 72.224 200.946 71.584C201.554 70.9333 202.018 70.224 202.338 69.456ZM208.018 71.232H209.794C209.794 71.232 209.788 71.3173 209.778 71.488C209.778 71.648 209.767 71.7867 209.746 71.904C209.682 72.9387 209.602 73.792 209.506 74.464C209.42 75.1253 209.324 75.6373 209.218 76C209.111 76.3733 208.983 76.64 208.834 76.8C208.684 76.9813 208.519 77.1093 208.338 77.184C208.167 77.2587 207.975 77.312 207.762 77.344C207.58 77.3653 207.346 77.3813 207.058 77.392C206.78 77.4027 206.476 77.3973 206.146 77.376C206.135 77.152 206.092 76.8907 206.018 76.592C205.943 76.304 205.842 76.064 205.714 75.872C205.97 75.8933 206.199 75.9093 206.402 75.92C206.604 75.92 206.759 75.92 206.866 75.92C206.972 75.92 207.058 75.9093 207.122 75.888C207.196 75.8667 207.266 75.8187 207.33 75.744C207.426 75.6373 207.511 75.4347 207.586 75.136C207.671 74.8267 207.746 74.3787 207.81 73.792C207.884 73.2053 207.954 72.4427 208.018 71.504V71.232ZM203.106 66.16V66.928H207.234V66.16H203.106ZM203.106 64.144V64.896H207.234V64.144H203.106ZM201.394 62.816H209.01V68.256H201.394V62.816ZM195.314 65.776H200.194V67.584H195.314V65.776ZM196.93 62.608H198.722V72.56H196.93V62.608ZM194.946 72.88C195.362 72.7307 195.842 72.544 196.386 72.32C196.94 72.096 197.527 71.856 198.146 71.6C198.764 71.3333 199.378 71.0667 199.986 70.8L200.402 72.448C199.602 72.864 198.786 73.28 197.954 73.696C197.122 74.112 196.359 74.4907 195.666 74.832L194.946 72.88ZM206.178 71.552L207.474 72.256C207.282 72.896 207.01 73.552 206.658 74.224C206.306 74.8853 205.911 75.504 205.474 76.08C205.036 76.656 204.578 77.1307 204.098 77.504C203.938 77.3227 203.73 77.1307 203.474 76.928C203.218 76.7253 202.967 76.56 202.722 76.432C203.244 76.1013 203.73 75.6747 204.178 75.152C204.626 74.6293 205.02 74.0533 205.362 73.424C205.714 72.7947 205.986 72.1707 206.178 71.552ZM203.762 71.568L205.01 72.304C204.743 72.8587 204.391 73.4187 203.954 73.984C203.527 74.5493 203.058 75.0773 202.546 75.568C202.034 76.0587 201.522 76.464 201.01 76.784C200.86 76.592 200.668 76.3893 200.434 76.176C200.21 75.9627 199.986 75.7867 199.762 75.648C200.284 75.3813 200.802 75.0293 201.314 74.592C201.836 74.1547 202.311 73.6747 202.738 73.152C203.164 72.6187 203.506 72.0907 203.762 71.568ZM215.778 64.88V67.024H221.41V64.88H215.778ZM213.922 63.04H223.362V68.848H213.922V63.04ZM211.714 70.192H217.842V77.344H215.922V72.032H213.538V77.44H211.714V70.192ZM219.186 70.192H225.522V77.36H223.602V72.032H221.026V77.44H219.186V70.192ZM212.514 74.784H216.722V76.624H212.514V74.784ZM220.066 74.784H224.546V76.624H220.066V74.784ZM233.058 62.416L234.226 63.552C233.778 63.68 233.276 63.7973 232.722 63.904C232.178 64.0107 231.623 64.096 231.058 64.16C230.492 64.224 229.948 64.272 229.426 64.304C229.394 64.144 229.335 63.952 229.25 63.728C229.175 63.4933 229.09 63.3013 228.994 63.152C229.484 63.0987 229.975 63.04 230.466 62.976C230.967 62.9013 231.442 62.816 231.89 62.72C232.348 62.624 232.738 62.5227 233.058 62.416ZM239.986 62.432L241.154 63.552C240.674 63.7013 240.14 63.8293 239.554 63.936C238.967 64.032 238.364 64.112 237.746 64.176C237.138 64.24 236.551 64.2933 235.986 64.336C235.954 64.1653 235.895 63.968 235.81 63.744C235.724 63.5093 235.644 63.312 235.57 63.152C236.092 63.1093 236.626 63.0507 237.17 62.976C237.714 62.9013 238.231 62.816 238.722 62.72C239.223 62.624 239.644 62.528 239.986 62.432ZM228.466 62.768L230.53 63.28C230.519 63.408 230.391 63.4933 230.146 63.536V64.32C230.146 64.736 230.098 65.216 230.002 65.76C229.906 66.2933 229.73 66.832 229.474 67.376C229.228 67.9093 228.86 68.4053 228.37 68.864C228.284 68.736 228.167 68.5973 228.018 68.448C227.868 68.288 227.714 68.1387 227.554 68C227.394 67.8507 227.244 67.7387 227.106 67.664C227.511 67.312 227.804 66.9387 227.986 66.544C228.178 66.1493 228.306 65.7547 228.37 65.36C228.434 64.9547 228.466 64.576 228.466 64.224V62.768ZM235.106 62.784L237.154 63.248C237.143 63.3973 237.015 63.488 236.77 63.52V64.336C236.77 64.7093 236.716 65.136 236.61 65.616C236.503 66.0853 236.3 66.5547 236.002 67.024C235.703 67.4827 235.271 67.8933 234.706 68.256C234.642 68.128 234.54 67.984 234.402 67.824C234.263 67.6533 234.119 67.4933 233.97 67.344C233.82 67.184 233.676 67.0667 233.538 66.992C233.986 66.7147 234.316 66.4213 234.53 66.112C234.754 65.8027 234.903 65.488 234.978 65.168C235.063 64.848 235.106 64.5387 235.106 64.24V62.784ZM229.218 64.8H234.546V66.192H229.218V64.8ZM235.81 64.8H241.794V66.192H235.81V64.8ZM231.33 65.264H233.026V67.856H231.33V65.264ZM238.05 65.264H239.762V67.872H238.05V65.264ZM231.17 71.088V71.792H238.146V71.088H231.17ZM231.17 72.88V73.584H238.146V72.88H231.17ZM231.17 69.312V70H238.146V69.312H231.17ZM229.314 68.16H240.082V74.72H229.314V68.16ZM235.49 75.568L237.09 74.656C237.666 74.8587 238.247 75.0773 238.834 75.312C239.431 75.536 239.996 75.7653 240.53 76C241.074 76.224 241.532 76.4267 241.906 76.608L239.666 77.472C239.367 77.3013 238.994 77.104 238.546 76.88C238.098 76.656 237.612 76.4267 237.09 76.192C236.578 75.968 236.044 75.76 235.49 75.568ZM231.954 74.592L233.698 75.392C233.271 75.6693 232.77 75.9413 232.194 76.208C231.618 76.4747 231.026 76.7147 230.418 76.928C229.81 77.152 229.234 77.3387 228.69 77.488C228.572 77.36 228.428 77.2053 228.258 77.024C228.098 76.8533 227.927 76.6773 227.746 76.496C227.564 76.3253 227.404 76.1867 227.266 76.08C227.831 75.9733 228.402 75.8453 228.978 75.696C229.564 75.5467 230.114 75.376 230.626 75.184C231.148 74.992 231.591 74.7947 231.954 74.592ZM247.33 75.6H255.122V77.024H247.33V75.6ZM249.618 65.76H251.474V67.696H249.618V65.76ZM243.714 66.864H257.634V70.064H255.746V68.304H245.522V70.064H243.714V66.864ZM247.266 68.976H255.09V72.56H247.266V71.2H253.186V70.352H247.266V68.976ZM247.346 73.296H256.306V77.44H254.402V74.704H247.346V73.296ZM246.21 68.976H248.034V77.456H246.21V68.976ZM245.314 63.52H250.37V65.04H245.314V63.52ZM251.794 63.52H258.002V65.04H251.794V63.52ZM245.394 62.272L247.17 62.768C246.86 63.4827 246.466 64.1813 245.986 64.864C245.516 65.536 245.047 66.1067 244.578 66.576C244.46 66.4693 244.306 66.352 244.114 66.224C243.922 66.096 243.73 65.968 243.538 65.84C243.346 65.712 243.17 65.6107 243.01 65.536C243.5 65.1413 243.959 64.6507 244.386 64.064C244.812 63.4773 245.148 62.88 245.394 62.272ZM251.906 62.272L253.73 62.72C253.442 63.4133 253.068 64.0747 252.61 64.704C252.151 65.3227 251.682 65.84 251.202 66.256C251.063 66.16 250.892 66.0587 250.69 65.952C250.498 65.8347 250.295 65.7227 250.082 65.616C249.868 65.4987 249.682 65.408 249.522 65.344C250.034 64.9813 250.498 64.528 250.914 63.984C251.34 63.4293 251.671 62.8587 251.906 62.272ZM245.922 64.704L247.554 64.256C247.746 64.5333 247.938 64.848 248.13 65.2C248.332 65.5413 248.487 65.8347 248.594 66.08L246.866 66.576C246.791 66.3307 246.658 66.032 246.466 65.68C246.284 65.3173 246.103 64.992 245.922 64.704ZM253.058 64.736L254.754 64.288C254.988 64.5547 255.223 64.8587 255.458 65.2C255.703 65.5413 255.89 65.8453 256.018 66.112L254.242 66.608C254.146 66.352 253.98 66.048 253.746 65.696C253.511 65.344 253.282 65.024 253.058 64.736ZM268.882 63.728H270.674V72.784H268.882V63.728ZM271.762 62.688H273.602V75.168C273.602 75.68 273.543 76.08 273.426 76.368C273.308 76.656 273.106 76.88 272.818 77.04C272.519 77.1893 272.135 77.2853 271.666 77.328C271.207 77.3813 270.668 77.408 270.05 77.408C270.007 77.1413 269.927 76.8213 269.81 76.448C269.703 76.0747 269.591 75.7493 269.474 75.472C269.89 75.4827 270.279 75.4933 270.642 75.504C271.015 75.504 271.271 75.504 271.41 75.504C271.538 75.4933 271.628 75.4667 271.682 75.424C271.735 75.3813 271.762 75.2907 271.762 75.152V62.688ZM262.834 62.512H264.658V77.424H262.834V62.512ZM266.066 70.368H267.794V74.464C267.794 74.8373 267.756 75.1413 267.682 75.376C267.607 75.6107 267.452 75.8027 267.218 75.952C266.983 76.08 266.711 76.16 266.402 76.192C266.092 76.224 265.74 76.2347 265.346 76.224C265.324 75.9893 265.266 75.7173 265.17 75.408C265.074 75.0987 264.972 74.832 264.866 74.608C265.09 74.6187 265.292 74.624 265.474 74.624C265.666 74.624 265.799 74.624 265.874 74.624C266.002 74.624 266.066 74.56 266.066 74.432V70.368ZM259.81 70.368H266.738V72.08H261.522V76.144H259.81V70.368ZM259.186 67.472H268.162V69.216H259.186V67.472ZM260.85 64.544H267.538V66.272H260.498L260.85 64.544ZM260.402 62.704L262.178 63.072C261.996 63.904 261.762 64.7253 261.474 65.536C261.196 66.3467 260.903 67.0347 260.594 67.6C260.476 67.5147 260.311 67.4293 260.098 67.344C259.895 67.248 259.687 67.1627 259.474 67.088C259.271 67.0027 259.09 66.9333 258.93 66.88C259.26 66.368 259.554 65.7333 259.81 64.976C260.066 64.2187 260.263 63.4613 260.402 62.704ZM276.082 65.376H287.698V67.264H276.082V65.376ZM281.57 62.416H283.554V66.272H281.57V62.416ZM287.106 65.376H287.522L287.906 65.28L289.362 66.192C288.86 67.0453 288.274 67.904 287.602 68.768C286.93 69.632 286.204 70.4747 285.426 71.296C284.658 72.1067 283.863 72.8693 283.042 73.584C282.22 74.288 281.404 74.912 280.594 75.456C280.423 75.2427 280.204 75.008 279.938 74.752C279.682 74.4853 279.436 74.272 279.202 74.112C279.98 73.6107 280.759 73.0293 281.538 72.368C282.316 71.696 283.058 70.9867 283.762 70.24C284.476 69.4827 285.122 68.7253 285.698 67.968C286.274 67.2107 286.743 66.5013 287.106 65.84V65.376ZM279.25 72.304C279.612 73.1467 280.13 73.7813 280.802 74.208C281.474 74.624 282.252 74.9067 283.138 75.056C284.023 75.2053 284.978 75.28 286.002 75.28C286.151 75.28 286.354 75.28 286.61 75.28C286.876 75.28 287.17 75.28 287.49 75.28C287.82 75.28 288.151 75.28 288.482 75.28C288.812 75.28 289.122 75.28 289.41 75.28C289.708 75.2693 289.954 75.264 290.146 75.264C290.05 75.4027 289.954 75.5893 289.858 75.824C289.772 76.048 289.692 76.2773 289.618 76.512C289.554 76.7573 289.506 76.976 289.474 77.168H288.706H285.858C284.556 77.168 283.383 77.056 282.338 76.832C281.292 76.608 280.37 76.192 279.57 75.584C278.78 74.976 278.119 74.096 277.586 72.944L279.25 72.304ZM276.802 77.424L274.914 76.24C275.308 75.7813 275.692 75.248 276.066 74.64C276.439 74.0213 276.78 73.376 277.09 72.704C277.41 72.032 277.666 71.4027 277.858 70.816L279.794 71.52C279.58 72.0213 279.319 72.6133 279.01 73.296C278.7 73.968 278.359 74.6667 277.986 75.392C277.612 76.1067 277.218 76.784 276.802 77.424ZM293.97 63.472H303.778V65.312H293.97V63.472ZM293.97 67.168H303.81V68.96H293.97V67.168ZM293.938 70.944H303.874V72.752H293.938V70.944ZM292.866 63.472H294.754V69.232C294.754 69.8613 294.727 70.5493 294.674 71.296C294.62 72.0427 294.514 72.7947 294.354 73.552C294.204 74.2987 293.975 75.0133 293.666 75.696C293.367 76.3787 292.972 76.9867 292.482 77.52C292.386 77.392 292.242 77.248 292.05 77.088C291.858 76.928 291.66 76.7733 291.458 76.624C291.266 76.4747 291.1 76.3573 290.962 76.272C291.399 75.792 291.746 75.264 292.002 74.688C292.258 74.1013 292.444 73.4987 292.562 72.88C292.69 72.2507 292.77 71.6267 292.802 71.008C292.844 70.3787 292.866 69.7813 292.866 69.216V63.472ZM303.106 63.472H305.026V75.168C305.026 75.68 304.962 76.0747 304.834 76.352C304.706 76.64 304.476 76.8587 304.146 77.008C303.826 77.1573 303.415 77.2533 302.914 77.296C302.412 77.3387 301.794 77.3547 301.058 77.344C301.026 77.088 300.946 76.7787 300.818 76.416C300.69 76.0533 300.562 75.7493 300.434 75.504C300.743 75.5147 301.052 75.5253 301.362 75.536C301.671 75.536 301.943 75.536 302.178 75.536C302.423 75.536 302.599 75.536 302.706 75.536C302.855 75.536 302.956 75.5093 303.01 75.456C303.074 75.4027 303.106 75.3013 303.106 75.152V63.472ZM297.794 64.208H299.73V77.232H297.794V64.208ZM309.682 72.032C310.172 72.032 310.61 72.1493 310.994 72.384C311.378 72.6187 311.687 72.9333 311.922 73.328C312.156 73.712 312.274 74.144 312.274 74.624C312.274 75.0933 312.156 75.5253 311.922 75.92C311.687 76.3147 311.378 76.6293 310.994 76.864C310.61 77.0987 310.172 77.216 309.682 77.216C309.212 77.216 308.78 77.0987 308.386 76.864C307.991 76.6293 307.676 76.3147 307.442 75.92C307.218 75.5253 307.106 75.0933 307.106 74.624C307.106 74.144 307.218 73.712 307.442 73.328C307.676 72.9333 307.991 72.6187 308.386 72.384C308.78 72.1493 309.212 72.032 309.682 72.032ZM309.698 76.064C310.092 76.064 310.428 75.9253 310.706 75.648C310.983 75.36 311.122 75.0187 311.122 74.624C311.122 74.3573 311.058 74.1173 310.93 73.904C310.802 73.68 310.626 73.504 310.402 73.376C310.188 73.248 309.954 73.184 309.698 73.184C309.431 73.184 309.191 73.248 308.978 73.376C308.764 73.504 308.588 73.68 308.45 73.904C308.322 74.1173 308.258 74.3573 308.258 74.624C308.258 74.8907 308.322 75.136 308.45 75.36C308.588 75.5733 308.764 75.744 308.978 75.872C309.191 76 309.431 76.064 309.698 76.064ZM113.523 93.1818V95.5455H108.068V93.1818H113.523ZM117.714 91.288H126.37V93.144H117.714V91.288ZM125.73 91.288H127.746C127.746 91.288 127.746 91.3413 127.746 91.448C127.746 91.544 127.746 91.6613 127.746 91.8C127.746 91.928 127.74 92.0347 127.73 92.12C127.687 93.3253 127.639 94.3653 127.586 95.24C127.532 96.104 127.468 96.824 127.394 97.4C127.33 97.976 127.25 98.4347 127.154 98.776C127.058 99.1173 126.94 99.3733 126.802 99.544C126.588 99.8 126.364 99.9813 126.13 100.088C125.906 100.195 125.639 100.269 125.33 100.312C125.063 100.355 124.711 100.376 124.274 100.376C123.836 100.387 123.378 100.381 122.898 100.36C122.887 100.072 122.823 99.7413 122.706 99.368C122.588 99.0053 122.444 98.6907 122.274 98.424C122.722 98.456 123.138 98.4773 123.522 98.488C123.906 98.4987 124.194 98.504 124.386 98.504C124.535 98.504 124.658 98.4933 124.754 98.472C124.85 98.44 124.946 98.376 125.042 98.28C125.17 98.1413 125.271 97.8373 125.346 97.368C125.431 96.888 125.506 96.184 125.57 95.256C125.634 94.3173 125.687 93.1067 125.73 91.624V91.288ZM119.506 85.608L121.586 86.216C121.191 87.144 120.716 88.04 120.162 88.904C119.618 89.768 119.026 90.5627 118.386 91.288C117.756 92.0133 117.1 92.6427 116.418 93.176C116.3 93.0373 116.14 92.872 115.938 92.68C115.735 92.4773 115.527 92.28 115.314 92.088C115.111 91.896 114.93 91.7413 114.77 91.624C115.431 91.176 116.06 90.6427 116.658 90.024C117.266 89.3947 117.815 88.7067 118.306 87.96C118.796 87.2027 119.196 86.4187 119.506 85.608ZM125.602 85.576C125.858 86.088 126.167 86.6107 126.53 87.144C126.892 87.6773 127.287 88.2 127.714 88.712C128.151 89.2133 128.594 89.688 129.042 90.136C129.5 90.584 129.948 90.9733 130.386 91.304C130.215 91.432 130.023 91.6027 129.81 91.816C129.607 92.0187 129.41 92.2267 129.218 92.44C129.036 92.6533 128.882 92.8507 128.754 93.032C128.306 92.616 127.852 92.152 127.394 91.64C126.935 91.1173 126.482 90.568 126.034 89.992C125.596 89.4053 125.18 88.8027 124.786 88.184C124.391 87.5547 124.034 86.936 123.714 86.328L125.602 85.576ZM120.562 91.832H122.658C122.583 92.728 122.46 93.6027 122.29 94.456C122.119 95.3093 121.836 96.1147 121.442 96.872C121.058 97.6293 120.498 98.3227 119.762 98.952C119.036 99.5707 118.076 100.099 116.882 100.536C116.807 100.355 116.7 100.157 116.562 99.944C116.423 99.7307 116.274 99.5173 116.114 99.304C115.954 99.1013 115.794 98.9253 115.634 98.776C116.711 98.4347 117.564 98.0133 118.194 97.512C118.823 97 119.298 96.4453 119.618 95.848C119.938 95.24 120.156 94.5947 120.274 93.912C120.402 93.2293 120.498 92.536 120.562 91.832ZM139.186 90.808H146.146V92.616H139.186V90.808ZM138.226 86.52L140.514 87.16C140.492 87.3093 140.354 87.4053 140.098 87.448V91.208C140.098 91.848 140.066 92.5627 140.002 93.352C139.948 94.1307 139.842 94.9413 139.682 95.784C139.522 96.616 139.282 97.432 138.962 98.232C138.652 99.0213 138.236 99.7467 137.714 100.408C137.628 100.269 137.495 100.115 137.314 99.944C137.143 99.784 136.962 99.6293 136.77 99.48C136.578 99.3307 136.402 99.224 136.242 99.16C136.69 98.5733 137.047 97.944 137.314 97.272C137.58 96.5893 137.778 95.896 137.906 95.192C138.034 94.488 138.119 93.7947 138.162 93.112C138.204 92.4187 138.226 91.7787 138.226 91.192V86.52ZM144.034 85.576L145.65 87.08C145.031 87.3253 144.359 87.56 143.634 87.784C142.908 87.9973 142.172 88.184 141.426 88.344C140.679 88.504 139.948 88.6373 139.234 88.744C139.191 88.52 139.106 88.2533 138.978 87.944C138.86 87.6347 138.738 87.3787 138.61 87.176C139.271 87.048 139.932 86.904 140.594 86.744C141.255 86.5733 141.884 86.3867 142.482 86.184C143.079 85.9813 143.596 85.7787 144.034 85.576ZM142.178 91.368H144.082V100.424H142.178V91.368ZM131.314 88.712H137.282V90.52H131.314V88.712ZM133.506 85.4H135.346V100.424H133.506V85.4ZM133.426 89.944L134.546 90.328C134.428 90.9787 134.274 91.6453 134.082 92.328C133.9 93.0107 133.687 93.6827 133.442 94.344C133.207 95.0053 132.951 95.624 132.674 96.2C132.396 96.7653 132.103 97.256 131.794 97.672C131.708 97.3947 131.575 97.0853 131.394 96.744C131.212 96.4027 131.042 96.1147 130.882 95.88C131.17 95.528 131.442 95.1173 131.698 94.648C131.954 94.1787 132.188 93.6827 132.402 93.16C132.626 92.6267 132.823 92.088 132.994 91.544C133.175 90.9893 133.319 90.456 133.426 89.944ZM135.202 91.352C135.308 91.4587 135.468 91.6507 135.682 91.928C135.906 92.1947 136.14 92.4827 136.386 92.792C136.631 93.1013 136.85 93.3893 137.042 93.656C137.244 93.9227 137.388 94.1147 137.474 94.232L136.386 95.752C136.29 95.5067 136.151 95.224 135.97 94.904C135.788 94.584 135.596 94.2587 135.394 93.928C135.191 93.5867 134.994 93.2667 134.802 92.968C134.62 92.6693 134.466 92.4187 134.338 92.216L135.202 91.352ZM147.314 87.128H152.834V88.904H147.314V87.128ZM149.106 88.168H151.042V95.736H149.106V88.168ZM146.882 95.736C147.394 95.5867 147.98 95.4107 148.642 95.208C149.314 95.0053 150.023 94.7867 150.77 94.552C151.527 94.3173 152.274 94.0773 153.01 93.832L153.33 95.512C152.348 95.8747 151.362 96.2373 150.37 96.6C149.378 96.9627 148.482 97.2827 147.682 97.56L146.882 95.736ZM153.026 86.056H162.146V87.656H153.026V86.056ZM155.474 92.504V93.528H159.666V92.504H155.474ZM155.474 94.84V95.864H159.666V94.84H155.474ZM155.474 90.184V91.192H159.666V90.184H155.474ZM153.682 88.776H161.538V97.256H153.682V88.776ZM156.498 86.936L158.738 87.208C158.578 87.7093 158.407 88.2 158.226 88.68C158.055 89.16 157.895 89.5707 157.746 89.912L156.034 89.608C156.13 89.2133 156.22 88.7707 156.306 88.28C156.402 87.7893 156.466 87.3413 156.498 86.936ZM155.378 97.224L156.93 98.328C156.578 98.5947 156.167 98.856 155.698 99.112C155.228 99.3787 154.738 99.624 154.226 99.848C153.724 100.083 153.239 100.275 152.77 100.424C152.642 100.243 152.46 100.019 152.226 99.752C152.002 99.496 151.794 99.2827 151.602 99.112C152.05 98.9627 152.514 98.7867 152.994 98.584C153.474 98.3707 153.922 98.1467 154.338 97.912C154.764 97.6667 155.111 97.4373 155.378 97.224ZM157.794 98.328L159.218 97.304C159.559 97.4853 159.927 97.6933 160.322 97.928C160.727 98.1627 161.116 98.4027 161.49 98.648C161.863 98.8933 162.172 99.1173 162.418 99.32L160.898 100.456C160.674 100.253 160.386 100.024 160.034 99.768C159.682 99.5227 159.308 99.272 158.914 99.016C158.519 98.76 158.146 98.5307 157.794 98.328ZM166.226 89.976H174.914V91.8H166.226V89.976ZM166.226 93.688H174.914V95.512H166.226V93.688ZM166.226 97.384H174.914V99.256H166.226V97.384ZM164.85 86.28H176.258V100.264H174.21V88.152H166.786V100.264H164.85V86.28ZM185.538 90.744H187.522V100.44H185.538V90.744ZM182.834 93.592V94.44H190.402V93.592H182.834ZM182.834 91.352V92.216H190.402V91.352H182.834ZM180.962 89.88H192.386V95.912H180.962V89.88ZM179.442 96.744H193.778V98.408H179.442V96.744ZM182.082 87.176V88.104H184.338V87.176H182.082ZM180.386 86.024H186.146V89.256H180.386V86.024ZM188.802 87.176V88.104H191.09V87.176H188.802ZM187.09 86.024H192.898V89.256H187.09V86.024ZM195.202 91.72H210.018V93.816H195.202V91.72ZM213.682 95.032C214.172 95.032 214.61 95.1493 214.994 95.384C215.378 95.6187 215.687 95.9333 215.922 96.328C216.156 96.712 216.274 97.144 216.274 97.624C216.274 98.0933 216.156 98.5253 215.922 98.92C215.687 99.3147 215.378 99.6293 214.994 99.864C214.61 100.099 214.172 100.216 213.682 100.216C213.212 100.216 212.78 100.099 212.386 99.864C211.991 99.6293 211.676 99.3147 211.442 98.92C211.218 98.5253 211.106 98.0933 211.106 97.624C211.106 97.144 211.218 96.712 211.442 96.328C211.676 95.9333 211.991 95.6187 212.386 95.384C212.78 95.1493 213.212 95.032 213.682 95.032ZM213.698 99.064C214.092 99.064 214.428 98.9253 214.706 98.648C214.983 98.36 215.122 98.0187 215.122 97.624C215.122 97.3573 215.058 97.1173 214.93 96.904C214.802 96.68 214.626 96.504 214.402 96.376C214.188 96.248 213.954 96.184 213.698 96.184C213.431 96.184 213.191 96.248 212.978 96.376C212.764 96.504 212.588 96.68 212.45 96.904C212.322 97.1173 212.258 97.3573 212.258 97.624C212.258 97.8907 212.322 98.136 212.45 98.36C212.588 98.5733 212.764 98.744 212.978 98.872C213.191 99 213.431 99.064 213.698 99.064ZM113.523 116.182V118.545H108.068V116.182H113.523ZM120.45 118.656H122.994V119.952H120.45V118.656ZM121.826 116.816H125.426V118.112H121.826V116.816ZM121.042 110.192H129.794V111.552H121.042V110.192ZM120.594 114.064H130.066V115.488H120.594V114.064ZM121.602 112.144H129.394V113.44H121.602V112.144ZM124.402 110.976H126.242V114.736H124.402V110.976ZM124.434 116.816H126.226V121.696C126.226 122.091 126.178 122.405 126.082 122.64C125.996 122.875 125.82 123.056 125.554 123.184C125.287 123.312 124.967 123.387 124.594 123.408C124.231 123.44 123.804 123.456 123.314 123.456C123.282 123.221 123.218 122.955 123.122 122.656C123.036 122.357 122.94 122.101 122.834 121.888C123.111 121.899 123.383 121.904 123.65 121.904C123.916 121.904 124.098 121.899 124.194 121.888C124.279 121.888 124.338 121.872 124.37 121.84C124.412 121.808 124.434 121.749 124.434 121.664V116.816ZM123.378 115.984L124.338 114.944C124.743 115.04 125.175 115.168 125.634 115.328C126.092 115.477 126.535 115.643 126.962 115.824C127.399 115.995 127.762 116.16 128.05 116.32L127.058 117.488C126.791 117.328 126.444 117.157 126.018 116.976C125.602 116.784 125.159 116.603 124.69 116.432C124.231 116.251 123.794 116.101 123.378 115.984ZM122.002 108.928L123.426 108.4C123.618 108.645 123.799 108.923 123.97 109.232C124.151 109.531 124.295 109.797 124.402 110.032L122.93 110.64C122.844 110.405 122.711 110.128 122.53 109.808C122.359 109.488 122.183 109.195 122.002 108.928ZM122.658 118.656H122.93L123.202 118.608L124.274 119.04C123.986 120.011 123.548 120.848 122.962 121.552C122.375 122.256 121.703 122.8 120.946 123.184C120.839 123.013 120.684 122.8 120.482 122.544C120.279 122.299 120.098 122.101 119.938 121.952C120.354 121.771 120.743 121.525 121.106 121.216C121.479 120.907 121.799 120.555 122.066 120.16C122.332 119.755 122.53 119.333 122.658 118.896V118.656ZM128.61 117.2L130.018 118.256C129.538 118.597 129.052 118.939 128.562 119.28C128.071 119.621 127.623 119.904 127.218 120.128L126.226 119.296C126.482 119.115 126.754 118.907 127.042 118.672C127.34 118.427 127.628 118.176 127.906 117.92C128.183 117.664 128.418 117.424 128.61 117.2ZM127.09 108.384L128.77 108.896C128.546 109.205 128.327 109.504 128.114 109.792C127.911 110.069 127.724 110.315 127.554 110.528L126.242 110.08C126.391 109.835 126.546 109.552 126.706 109.232C126.866 108.912 126.994 108.629 127.09 108.384ZM126.194 117.792C126.45 118.347 126.78 118.875 127.186 119.376C127.602 119.867 128.076 120.304 128.61 120.688C129.154 121.072 129.73 121.381 130.338 121.616C130.146 121.776 129.938 121.995 129.714 122.272C129.49 122.549 129.314 122.805 129.186 123.04C128.556 122.72 127.975 122.315 127.442 121.824C126.908 121.333 126.434 120.773 126.018 120.144C125.612 119.504 125.271 118.832 124.994 118.128L126.194 117.792ZM115.33 111.728H120.61V113.504H115.33V111.728ZM117.282 108.4H119.01V123.424H117.282V108.4ZM117.25 112.944L118.306 113.296C118.199 113.936 118.06 114.597 117.89 115.28C117.719 115.952 117.527 116.619 117.314 117.28C117.1 117.931 116.866 118.539 116.61 119.104C116.364 119.669 116.098 120.155 115.81 120.56C115.724 120.315 115.591 120.027 115.41 119.696C115.239 119.365 115.084 119.093 114.946 118.88C115.202 118.528 115.447 118.117 115.682 117.648C115.916 117.179 116.135 116.677 116.338 116.144C116.54 115.611 116.716 115.072 116.866 114.528C117.026 113.973 117.154 113.445 117.25 112.944ZM118.93 114.096C119.015 114.203 119.148 114.395 119.33 114.672C119.522 114.939 119.724 115.232 119.938 115.552C120.151 115.861 120.343 116.155 120.514 116.432C120.695 116.699 120.818 116.885 120.882 116.992L119.89 118.368C119.794 118.144 119.671 117.872 119.522 117.552C119.372 117.232 119.207 116.901 119.026 116.56C118.855 116.219 118.69 115.899 118.53 115.6C118.38 115.301 118.247 115.056 118.13 114.864L118.93 114.096ZM135.778 110.88V113.024H141.41V110.88H135.778ZM133.922 109.04H143.362V114.848H133.922V109.04ZM131.714 116.192H137.842V123.344H135.922V118.032H133.538V123.44H131.714V116.192ZM139.186 116.192H145.522V123.36H143.602V118.032H141.026V123.44H139.186V116.192ZM132.514 120.784H136.722V122.624H132.514V120.784ZM140.066 120.784H144.546V122.624H140.066V120.784ZM157.09 108.384H158.994V111.056H157.09V108.384ZM158.642 112.624L160.146 111.888C160.412 112.219 160.679 112.581 160.946 112.976C161.212 113.371 161.458 113.76 161.682 114.144C161.916 114.517 162.098 114.859 162.226 115.168L160.61 116C160.503 115.691 160.343 115.344 160.13 114.96C159.916 114.565 159.682 114.165 159.426 113.76C159.17 113.355 158.908 112.976 158.642 112.624ZM155.586 112.032L157.362 112.48C157.084 113.195 156.727 113.888 156.29 114.56C155.863 115.221 155.415 115.776 154.946 116.224C154.839 116.117 154.695 115.995 154.514 115.856C154.332 115.717 154.146 115.584 153.954 115.456C153.762 115.317 153.596 115.211 153.458 115.136C153.916 114.752 154.327 114.288 154.69 113.744C155.063 113.189 155.362 112.619 155.586 112.032ZM154.034 110.24H162.002V111.984H154.034V110.24ZM156.85 115.152C157.127 116.165 157.516 117.115 158.018 118C158.519 118.875 159.127 119.648 159.842 120.32C160.556 120.992 161.383 121.525 162.322 121.92C162.183 122.027 162.034 122.171 161.874 122.352C161.714 122.544 161.564 122.736 161.426 122.928C161.287 123.12 161.17 123.296 161.074 123.456C160.06 122.976 159.18 122.352 158.434 121.584C157.687 120.805 157.047 119.909 156.514 118.896C155.98 117.883 155.538 116.763 155.186 115.536L156.85 115.152ZM159.026 115.12L160.802 115.52C160.343 117.461 159.602 119.088 158.578 120.4C157.564 121.712 156.194 122.741 154.466 123.488C154.38 123.349 154.268 123.184 154.13 122.992C153.991 122.8 153.842 122.608 153.682 122.416C153.532 122.235 153.399 122.091 153.282 121.984C154.85 121.376 156.108 120.496 157.058 119.344C158.007 118.181 158.663 116.773 159.026 115.12ZM147.234 109.952H153.778V111.6H147.234V109.952ZM147.058 119.216H154.114V120.896H147.058V119.216ZM149.682 108.416H151.41V113.088H149.682V108.416ZM149.89 113.104H151.186V117.552H151.41V123.424H149.682V117.552H149.89V113.104ZM148.914 115.984V116.928H152.194V115.984H148.914ZM148.914 113.792V114.72H152.194V113.792H148.914ZM147.522 112.448H153.634V118.272H147.522V112.448ZM169.602 108.624H171.698V121.024C171.698 121.621 171.623 122.069 171.474 122.368C171.324 122.667 171.068 122.896 170.706 123.056C170.332 123.205 169.863 123.301 169.298 123.344C168.743 123.397 168.076 123.419 167.298 123.408C167.266 123.227 167.207 123.013 167.122 122.768C167.036 122.533 166.94 122.293 166.834 122.048C166.738 121.803 166.636 121.595 166.53 121.424C166.882 121.435 167.234 121.445 167.586 121.456C167.938 121.467 168.252 121.472 168.53 121.472C168.807 121.461 169.004 121.456 169.122 121.456C169.292 121.456 169.415 121.424 169.49 121.36C169.564 121.296 169.602 121.184 169.602 121.024V108.624ZM173.442 112.832L175.33 112.128C175.767 112.885 176.188 113.696 176.594 114.56C177.01 115.413 177.372 116.256 177.682 117.088C178.002 117.909 178.231 118.656 178.37 119.328L176.258 120.16C176.151 119.509 175.954 118.768 175.666 117.936C175.388 117.093 175.052 116.229 174.658 115.344C174.274 114.448 173.868 113.611 173.442 112.832ZM165.41 112.304L167.586 112.672C167.404 113.461 167.186 114.304 166.93 115.2C166.674 116.085 166.37 116.933 166.018 117.744C165.676 118.544 165.282 119.243 164.834 119.84C164.674 119.723 164.476 119.6 164.242 119.472C164.018 119.344 163.788 119.227 163.554 119.12C163.33 119.003 163.127 118.907 162.946 118.832C163.383 118.288 163.762 117.643 164.082 116.896C164.412 116.139 164.69 115.36 164.914 114.56C165.138 113.749 165.303 112.997 165.41 112.304ZM181.682 118.032C182.172 118.032 182.61 118.149 182.994 118.384C183.378 118.619 183.687 118.933 183.922 119.328C184.156 119.712 184.274 120.144 184.274 120.624C184.274 121.093 184.156 121.525 183.922 121.92C183.687 122.315 183.378 122.629 182.994 122.864C182.61 123.099 182.172 123.216 181.682 123.216C181.212 123.216 180.78 123.099 180.386 122.864C179.991 122.629 179.676 122.315 179.442 121.92C179.218 121.525 179.106 121.093 179.106 120.624C179.106 120.144 179.218 119.712 179.442 119.328C179.676 118.933 179.991 118.619 180.386 118.384C180.78 118.149 181.212 118.032 181.682 118.032ZM181.698 122.064C182.092 122.064 182.428 121.925 182.706 121.648C182.983 121.36 183.122 121.019 183.122 120.624C183.122 120.357 183.058 120.117 182.93 119.904C182.802 119.68 182.626 119.504 182.402 119.376C182.188 119.248 181.954 119.184 181.698 119.184C181.431 119.184 181.191 119.248 180.978 119.376C180.764 119.504 180.588 119.68 180.45 119.904C180.322 120.117 180.258 120.357 180.258 120.624C180.258 120.891 180.322 121.136 180.45 121.36C180.588 121.573 180.764 121.744 180.978 121.872C181.191 122 181.431 122.064 181.698 122.064Z" fill="#4974A1"/>
<path d="M3 139V3H78V139H3Z" stroke="white" stroke-width="5"/>
<path d="M40.644 39.648H56.068V43.136H40.644V39.648ZM38.756 45.856H57.476V49.44H38.756V45.856ZM39.428 52.32H57.188V55.84H39.428V52.32ZM46.372 36.768H50.18V47.84H46.372V36.768ZM50.148 49.024H53.956V62.592C53.956 63.552 53.8387 64.3093 53.604 64.864C53.3907 65.4187 52.964 65.856 52.324 66.176C51.6627 66.4533 50.8733 66.624 49.956 66.688C49.0387 66.7733 47.9827 66.816 46.788 66.816C46.7027 66.2613 46.5533 65.6213 46.34 64.896C46.1267 64.1707 45.8813 63.5413 45.604 63.008C46.3933 63.0293 47.172 63.0507 47.94 63.072C48.708 63.072 49.22 63.072 49.476 63.072C49.732 63.0507 49.9027 63.008 49.988 62.944C50.0947 62.88 50.148 62.7413 50.148 62.528V49.024ZM40.548 57.568L43.396 55.808C43.8867 56.2773 44.3773 56.8 44.868 57.376C45.3587 57.952 45.8173 58.528 46.244 59.104C46.692 59.6587 47.0333 60.1707 47.268 60.64L44.228 62.624C44.0147 62.1547 43.7053 61.632 43.3 61.056C42.8947 60.4587 42.4467 59.8613 41.956 59.264C41.4867 58.6453 41.0173 58.08 40.548 57.568ZM27.364 53.856C28.4093 53.6213 29.5933 53.3333 30.916 52.992C32.26 52.6507 33.668 52.2773 35.14 51.872C36.6333 51.4453 38.116 51.0187 39.588 50.592L40.068 53.984C38.0627 54.6027 36.0147 55.232 33.924 55.872C31.8547 56.4907 29.9773 57.0453 28.292 57.536L27.364 53.856ZM33.092 36.832H36.612V66.88H33.092V36.832ZM28.868 38.464L32.1 39.008C31.9507 40.416 31.7693 41.8347 31.556 43.264C31.3427 44.672 31.0867 46.0053 30.788 47.264C30.4893 48.5227 30.148 49.632 29.764 50.592C29.572 50.4213 29.3053 50.2293 28.964 50.016C28.6227 49.8027 28.2813 49.5893 27.94 49.376C27.5987 49.1413 27.3 48.96 27.044 48.832C27.3853 47.9787 27.6733 46.9867 27.908 45.856C28.164 44.7253 28.3667 43.5307 28.516 42.272C28.6867 40.992 28.804 39.7227 28.868 38.464ZM29.764 42.848H39.3V46.496H29.028L29.764 42.848ZM33.348 93.608H52.004V97.064H33.348V93.608ZM40.836 87.4H44.676V95.368H40.836V87.4ZM33.156 85.992H54.788V98.344H50.852V89.448H33.156V85.992ZM31.268 85.992H35.14V101.64C35.14 102.323 35.2253 102.835 35.396 103.176C35.588 103.517 35.972 103.741 36.548 103.848C37.1453 103.955 38.0093 104.008 39.14 104.008C39.4173 104.008 39.8227 104.008 40.356 104.008C40.9107 104.008 41.5293 104.008 42.212 104.008C42.916 104.008 43.6413 104.008 44.388 104.008C45.156 104.008 45.892 104.008 46.596 104.008C47.3 104.008 47.9293 104.008 48.484 104.008C49.06 104.008 49.4973 104.008 49.796 104.008C50.7987 104.008 51.556 103.912 52.068 103.72C52.58 103.507 52.9427 103.101 53.156 102.504C53.3907 101.907 53.5827 101.011 53.732 99.816C54.2013 100.115 54.7987 100.403 55.524 100.68C56.2707 100.936 56.9213 101.117 57.476 101.224C57.2413 102.845 56.8893 104.115 56.42 105.032C55.9507 105.971 55.2147 106.632 54.212 107.016C53.2307 107.4 51.8547 107.592 50.084 107.592C49.828 107.592 49.4227 107.592 48.868 107.592C48.3133 107.592 47.6627 107.592 46.916 107.592C46.1693 107.592 45.3907 107.592 44.58 107.592C43.7907 107.592 43.0227 107.592 42.276 107.592C41.5507 107.592 40.9107 107.592 40.356 107.592C39.8227 107.592 39.428 107.592 39.172 107.592C37.1667 107.592 35.5773 107.421 34.404 107.08C33.252 106.739 32.4413 106.141 31.972 105.288C31.5027 104.435 31.268 103.219 31.268 101.64V85.992ZM36.836 80.008H46.66V83.304H35.204L36.836 80.008ZM36.356 77.64L40.484 78.472C39.6733 79.9013 38.7453 81.32 37.7 82.728C36.6547 84.136 35.4813 85.5013 34.18 86.824C32.9 88.1467 31.4707 89.3947 29.892 90.568C29.6787 90.2693 29.412 89.9387 29.092 89.576C28.772 89.2133 28.4307 88.872 28.068 88.552C27.7267 88.232 27.4067 87.976 27.108 87.784C28.58 86.8027 29.9027 85.736 31.076 84.584C32.2493 83.432 33.2733 82.2693 34.148 81.096C35.044 79.9013 35.78 78.7493 36.356 77.64ZM44.9 80.008H45.764L46.532 79.784L49.092 81.512C48.6227 82.408 48.0893 83.336 47.492 84.296C46.916 85.256 46.2973 86.1733 45.636 87.048C44.996 87.9227 44.356 88.6907 43.716 89.352C43.5453 89.0747 43.3107 88.776 43.012 88.456C42.7133 88.136 42.404 87.8267 42.084 87.528C41.7853 87.2293 41.5187 86.9733 41.284 86.76C41.7533 86.2267 42.2227 85.608 42.692 84.904C43.1613 84.1787 43.588 83.4533 43.972 82.728C44.3773 81.9813 44.6867 81.32 44.9 80.744V80.008Z" fill="white"/>
</svg>
